<?xml version="1.0" encoding="utf-8"?>
<!-- Generator: Adobe Illustrator 27.5.0, SVG Export Plug-In . SVG Version: 6.00 Build 0)  -->
<svg version="1.1" xmlns="http://www.w3.org/2000/svg" xmlns:xlink="http://www.w3.org/1999/xlink" x="0px" y="0px"
	 viewBox="0 0 500 500" style="enable-background:new 0 0 500 500;" xml:space="preserve">
<g id="BACKGROUND">
	<rect style="fill:#FFF3E1;" width="500" height="500"/>
</g>
<g id="OBJECTS">
	<path style="fill:#FFFFFF;" d="M33.726,228.582c10.219-51.823,46.959-99.076,89.982-128.637
		c107.245-73.686,269.158-38.637,329.272,78.853c0.624,1.224,1.237,2.453,1.84,3.688c24.48,50.113,36.485,125.166-5.682,169.729
		c-19.183,20.273-50.521,30.742-76.615,18.106c-24.209-11.723-39.742-38.364-66.098-46.098
		c-27.613-8.099-52.564,13.869-72.931,29.254c-65.661,49.601-192.044,9.619-201.85-77.64
		C29.848,259.854,30.689,243.986,33.726,228.582z"/>
	<g>
		<g>
			<g>
				<g>
					<path style="fill:#EFAD9C;" d="M83.453,334.546c-3.102-4.223-10.336-77.579-10.336-77.579l25.57,3.511
						c0,0,2.514,28.451,5.034,74.185c0.24,4.358-1.161,8.648-3.934,12.02c-11.636,14.147-26.804,32.138-42.145,48.542
						c-4.378-0.48-8.109-3.823-8.811-7.096C69.871,357.33,74.682,341.138,83.453,334.546"/>
					<g>
						<g>
							<path style="fill:#7B95BA;" d="M44.279,393.906c-0.694,1.495-1.014,2.634-1.014,2.634s9.683,10.558,23.861,19.194
								c0.491-0.625,0.784-1.26,0.892-1.921c0.854-4.923-8.07-10.722-10.376-18.588l-8.815-7.099
								C46.625,389.597,45.148,392.031,44.279,393.906z"/>
							<path style="fill:#36303A;" d="M44.279,393.906c-0.694,1.495-1.014,2.634-1.014,2.634s9.683,10.558,23.861,19.194
								c0.491-0.625,0.784-1.26,0.892-1.921C59.216,408.34,51.2,401.621,44.279,393.906z"/>
						</g>
						<g>
							
								<path style="fill:none;stroke:#FFFFFF;stroke-width:0.5;stroke-linecap:round;stroke-linejoin:round;stroke-miterlimit:10;" d="
								M58.294,398.397c-0.794,0.104-1.566,0.37-2.255,0.778"/>
							
								<path style="fill:none;stroke:#FFFFFF;stroke-width:0.5;stroke-linecap:round;stroke-linejoin:round;stroke-miterlimit:10;" d="
								M59.082,399.537c-0.794,0.104-1.566,0.37-2.255,0.778"/>
							
								<path style="fill:none;stroke:#FFFFFF;stroke-width:0.5;stroke-linecap:round;stroke-linejoin:round;stroke-miterlimit:10;" d="
								M59.822,400.816c-0.794,0.103-1.566,0.37-2.255,0.778"/>
						</g>
					</g>
				</g>
				<path style="fill:#7B95BA;" d="M105.251,322.65c-1.769-19.453-4.063-36.64-5.945-55.637c-0.212-2.155-0.419-4.33-0.616-6.537
					l-28.709-2.408c-1.283,7.546-2.388,14.583-1.561,27.618c0.369,16.741,5.596,33.313,13.689,47.972
					c-8.907,9.892-15.44,21.627-21.868,33.279c-1.314,2.395-2.679,4.922-2.637,7.651c0.032,3.374,2.363,6.511,5.426,7.91
					c3.073,1.402,4.499,1.348,7.603,0.008c9.276-4.019,15.887-15.708,22.395-23.46c4.92-5.848,9.98-11.972,11.852-19.385
					C106.274,334.129,105.769,328.329,105.251,322.65z"/>
			</g>
			<g>
				<g>
					<path style="fill:#EFAD9C;" d="M125.927,330.922c-4.176-3.164-34.232-75.041-34.232-75.041l27.742-0.298
						c0,0,10.512,26.557,25.953,69.679c1.471,4.11,1.35,8.621-0.348,12.642c-7.125,16.875-16.541,38.441-26.576,58.535
						c-4.333,0.787-8.862-1.356-10.467-4.293C119.397,356.631,119.397,339.739,125.927,330.922"/>
					<g>
						<g>
							<path style="fill:#7B95BA;" d="M105.281,398.98c-0.24,1.63-0.222,2.814-0.222,2.814s12.289,7.363,28.34,11.604
								c0.292-0.739,0.393-1.431,0.308-2.095c-0.583-4.963-10.79-7.98-15.24-14.863l-10.472-4.295
								C106.302,394.181,105.58,396.936,105.281,398.98z"/>
							<path style="fill:#36303A;" d="M105.281,398.98c-0.24,1.63-0.222,2.814-0.222,2.814s12.289,7.363,28.34,11.604
								c0.292-0.739,0.393-1.431,0.308-2.095C123.71,408.562,114.113,404.404,105.281,398.98z"/>
						</g>
						<g>
							
								<path style="fill:none;stroke:#FFFFFF;stroke-width:0.5;stroke-linecap:round;stroke-linejoin:round;stroke-miterlimit:10;" d="
								M119.994,399.294c-0.732,0.325-1.396,0.801-1.94,1.388"/>
							
								<path style="fill:none;stroke:#FFFFFF;stroke-width:0.5;stroke-linecap:round;stroke-linejoin:round;stroke-miterlimit:10;" d="
								M121.074,400.162c-0.732,0.325-1.396,0.801-1.94,1.388"/>
							
								<path style="fill:none;stroke:#FFFFFF;stroke-width:0.5;stroke-linecap:round;stroke-linejoin:round;stroke-miterlimit:10;" d="
								M122.148,401.178c-0.732,0.325-1.396,0.801-1.94,1.388"/>
						</g>
					</g>
				</g>
				<g>
					<g>
						<path style="fill:#7B95BA;" d="M91.28,256.994l28.16-1.414c0.817,2.06,1.634,4.086,2.452,6.091
							c7.214,17.675,14.308,33.497,21.543,51.641c2.114,5.296,4.25,10.712,4.49,16.411c0.316,7.639-2.79,14.951-5.841,21.957
							c-4.032,9.284-7.039,22.371-14.787,28.866c-2.593,2.168-3.945,2.626-7.29,2.158c-3.334-0.469-6.462-2.811-7.454-6.037
							c-0.817-2.604-0.229-5.416,0.349-8.086c2.844-13,5.765-26.109,11.485-38.128c-11.932-11.747-20.824-26.262-25.946-42.204"/>
					</g>
					<g>
						<path style="fill:none;stroke:#FFFFFF;stroke-linecap:round;stroke-linejoin:round;stroke-miterlimit:10;" d="M93,265.039
							c0.249,11.324-0.92,22.678-3.473,33.713"/>
						<path style="fill:none;stroke:#FFFFFF;stroke-linecap:round;stroke-linejoin:round;stroke-miterlimit:10;" d="
							M100.503,265.039c1.635,11.208,4.675,22.21,9.025,32.667"/>
					</g>
				</g>
			</g>
			<g>
				<g>
					<path style="fill:#EFAD9C;" d="M132.489,169.173c11.232-19.417,15.457-33.478,15.457-33.478l8.939,2.807
						c-2.976,8.597-5.901,16.948-11.28,30.723c-0.637,1.636-1.268,3.252-1.88,4.842c-0.084,0.217-0.169,0.433-0.256,0.647
						c-1.088,2.691-3.119,4.905-5.731,6.169c-0.014,0.007-0.028,0.014-0.042,0.02c-1.814,0.866-3.583,1.693-5.315,2.469
						c-23.194,10.415-38.92,13.685-38.92,13.685l4.189-20.022C108.005,176.733,121.073,172.685,132.489,169.173z"/>
					<path style="fill:#EFAD9C;" d="M159.595,134.012c2.099-1.074,4.062-2.415,5.826-3.979c0.218-0.193,0.438-0.396,0.573-0.654
						c0.135-0.258,0.172-0.587,0.021-0.837c-0.279-0.46-0.957-0.397-1.477-0.26c-1.41,0.37-2.887,0.75-4.222,1.335
						c1.689-1.435,3.378-2.87,5.007-4.373c0.263-0.243,0.53-0.495,0.686-0.817c0.156-0.322,0.179-0.734-0.037-1.019
						c-0.207-0.275-0.588-0.372-0.93-0.328c-0.341,0.044-0.655,0.205-0.961,0.364c-1.836,0.952-3.654,1.943-5.49,2.896
						c1.799-1.916,3.606-3.841,5.094-6.007c0.175-0.255,0.348-0.52,0.418-0.821c0.069-0.301,0.015-0.649-0.212-0.858
						c-0.217-0.2-0.549-0.233-0.834-0.158c-0.285,0.076-0.536,0.245-0.778,0.413c-2.318,1.611-4.46,3.43-6.411,5.47
						c1.322-1.999,2.445-4.129,3.348-6.349c0.177-0.435,0.331-0.976,0.03-1.337c-0.245-0.293-0.706-0.318-1.054-0.161
						c-0.348,0.158-0.608,0.456-0.853,0.749c-2.78,3.309-5.194,6.924-7.184,10.76c-0.604-1.692-1.347-3.417-2.71-4.587
						c-0.423-0.363-1.09-0.648-1.501-0.272c-0.291,0.266-0.281,0.719-0.249,1.111c0.135,1.67,0.27,3.339,0.405,5.009
						c0.128,1.588,0.259,3.187,0.682,4.722c0.423,1.536,1.163,3.021,2.343,4.092c1.401,1.27,3.429,1.862,5.264,1.406
						c1.235-0.307,2.331-1.054,3.199-1.985C158.456,136.605,159.037,135.155,159.595,134.012z"/>
				</g>
				<g>
					<g>
						<path style="fill:#EFAD9C;" d="M119.437,255.583c-2.843,1.713-25.457,8.982-49.455,2.484
							c8.26-31.028-5.594-56.237-5.606-56.236c-0.573-14.09-0.249-17.88-0.423-17.936c2.114-2.525,6.617-4.538,11.028-5.432
							c0.861-0.186,1.704-0.314,2.538-0.408l0.767-0.077c3.972-1.01,22.361-1.97,23.777-1.203c1.333,1.643,5.398,9.733,7.097,18.903
							c3.091,3.528,5.069,7.851,5.404,12.553c0.217,3.04-0.249,6.231-1.551,9.47c0,0-0.011,0.001-0.011,0.012
							c-0.425,1.053-0.953,2.09-1.629,3.126C112.973,236.005,113.479,240.762,119.437,255.583z"/>
					</g>
					<g>
						<g>
							<g>
								<g>
									<path style="fill:#6B8383;" d="M64.376,201.831c0.01-0.001,10.156,18.486,7.892,43.276c1.267,0.29,2.519,0.64,3.801,0.888
										c2.032,0.394,4.145,0.593,6.208,0.754c4.032,0.314,8.161,0.206,12.201,0.095c6.946-0.191,13.927-1.429,20.543-3.616
										c-2.001-6.859-2.589-12.346-3.647-22.39c0.676-1.036,1.204-2.074,1.629-3.126c-0.001-0.011,0.011-0.012,0.011-0.012
										c1.302-3.239,1.768-6.43,1.551-9.47c-0.335-4.701-2.313-9.024-5.404-12.553c-1.699-9.171-5.764-17.26-7.097-18.903
										c-1.417-0.767-19.806,0.193-23.778,1.203l-0.767,0.077c-0.834,0.094-1.677,0.222-2.538,0.408
										c-4.412,0.894-8.914,2.907-11.028,5.432C64.127,183.951,63.803,187.741,64.376,201.831z"/>
								</g>
							</g>
						</g>
						
							<ellipse transform="matrix(0.9818 -0.1898 0.1898 0.9818 -36.838 21.6811)" style="fill:#567776;" cx="94.782" cy="203.18" rx="9.311" ry="13.296"/>
					</g>
				</g>
				<g>
					<g>
						<path style="fill:#EFAD9C;" d="M37.622,223.685c15.901,2.808,20.259,4.477,30.326,5.912l1.055-9.305
							c0,0-7.509-1.24-28.709-8.566c6.331-3.348,12.214-5.415,20.617-8.638c8.357-3.206,12.815-12.331,10.311-20.924l-0.663-2.276
							c0,0-17.457,6.165-40.718,23.309C12.784,215.767,24.828,221.426,37.622,223.685z"/>
					</g>
					<path style="fill:#EFAD9C;" d="M69.002,231.822c1.289,1.975,2.828,3.786,4.568,5.377c0.215,0.197,0.44,0.394,0.711,0.501
						c0.271,0.107,0.602,0.11,0.834-0.067c0.428-0.326,0.294-0.993,0.104-1.496c-0.516-1.363-1.049-2.792-1.77-4.059
						c1.604,1.529,3.209,3.058,4.874,4.52c0.269,0.236,0.548,0.475,0.884,0.597c0.337,0.121,0.748,0.101,1.01-0.143
						c0.252-0.235,0.308-0.624,0.229-0.959c-0.08-0.335-0.273-0.63-0.462-0.917c-1.14-1.726-2.316-3.43-3.456-5.156
						c2.094,1.588,4.198,3.184,6.509,4.436c0.272,0.147,0.553,0.292,0.86,0.329c0.307,0.037,0.647-0.053,0.831-0.301
						c0.176-0.237,0.175-0.57,0.07-0.846c-0.105-0.276-0.299-0.507-0.493-0.731c-1.846-2.136-3.879-4.076-6.113-5.801
						c2.126,1.105,4.363,1.999,6.665,2.663c0.451,0.13,1.005,0.227,1.332-0.11c0.266-0.274,0.243-0.735,0.049-1.065
						s-0.518-0.557-0.834-0.77c-3.582-2.417-7.431-4.438-11.454-6.015c1.62-0.778,3.257-1.698,4.277-3.177
						c0.317-0.459,0.53-1.152,0.113-1.521c-0.295-0.261-0.744-0.204-1.131-0.131c-1.646,0.309-3.292,0.619-4.939,0.928
						c-1.565,0.294-3.142,0.592-4.625,1.174c-1.483,0.582-2.883,1.474-3.823,2.76c-1.116,1.526-1.492,3.605-0.846,5.383
						c0.435,1.196,1.293,2.208,2.309,2.973C66.303,230.962,67.806,231.387,69.002,231.822z"/>
				</g>
			</g>
			<g>
				<path style="fill:#CC8A29;" d="M72.466,123.007c-2.06-1.58-4.776-2.381-7.319-1.86c-3.125,0.639-5.59,3.136-7.108,5.941
					c-1.462,2.7-2.221,5.861-1.661,8.879s2.571,5.837,5.436,6.941c2.132,0.821,4.546,0.657,6.723-0.037
					c2.697-0.86,5.166-2.558,6.71-4.93C78.395,133.102,76.948,126.446,72.466,123.007z"/>
				<path style="fill:#6B8383;" d="M66.975,137.099c-0.511-2.277,0.448-4.815,2.336-6.187c1.888-1.371,4.599-1.497,6.606-0.307
					C74.296,134.14,70.841,136.677,66.975,137.099z"/>
				<g>
					<path style="fill:#CC8A29;" d="M67.889,152.641c2.082,4.395,4.747,8.524,7.96,12.178c1.133,1.289,2.534,2.844,4.431,2.662
						c2.061-0.198,3.057-2.089,3.832-3.757c3.549-7.646,12.436-10.927,16.089-18.555c3.604-7.527-1.121-15.913-8.845-18.16
						c-6.239-1.815-15.622,0.013-18.598,6.392c-3.307-0.319-6.472,2.277-7.476,5.528C63.839,143.604,65.907,148.458,67.889,152.641z
						"/>
					<path style="fill:#EFAD9C;" d="M73.83,139.417c4.003-9.892,22.229-8.775,24.471-1.536c4.611,14.891,3.164,21.39-0.652,25.474
						c-4.416,4.726-7.672,4.564-6.663,13.307c-1.314,4.867-8.344,6.321-11.246,1.297c-1.195-11.597-6.181-19.915-6.181-19.915
						S72.18,143.496,73.83,139.417z"/>
					<path style="fill:#CC8A29;" d="M75.972,141.26c3.577,4.068,9.629,2.337,9.629,2.337l-3.914-2.656c0,0,9.415,4.201,18.306,1.344
						c0,0,0.95-3.493-3.781-8.592c-3.027-3.261-10.736-3.263-17.084-1.316c-6.348,1.947-8.843,5.092-8.518,9.77
						c0.325,4.678,0.522,10.543,0.522,10.543l2.739,1.63C77.514,151.23,75.972,141.26,75.972,141.26z"/>
					<g>
						<g>
							<path style="fill:#1B1B28;" d="M86.394,152.507c0.073,0.633,0.645,1.086,1.277,1.013c0.632-0.073,1.086-0.645,1.013-1.277
								c-0.073-0.632-0.645-1.086-1.277-1.013C86.775,151.303,86.321,151.875,86.394,152.507z"/>
							<path style="fill:#FFFFFF;" d="M87.503,152.062c0.027,0.232,0.236,0.398,0.468,0.371c0.232-0.027,0.398-0.236,0.371-0.468
								c-0.027-0.232-0.236-0.398-0.468-0.371C87.643,151.621,87.476,151.831,87.503,152.062z"/>
						</g>
						<g>
							<path style="fill:#1B1B28;" d="M95.251,151.486c0.073,0.632,0.645,1.086,1.277,1.013c0.632-0.073,1.086-0.645,1.013-1.277
								c-0.073-0.632-0.645-1.086-1.277-1.013C95.632,150.282,95.178,150.854,95.251,151.486z"/>
							<path style="fill:#FFFFFF;" d="M96.36,151.041c0.027,0.232,0.236,0.398,0.468,0.371c0.231-0.027,0.398-0.236,0.371-0.468
								c-0.027-0.232-0.236-0.398-0.468-0.371C96.499,150.6,96.333,150.809,96.36,151.041z"/>
						</g>
						<path style="fill:#CC8A29;" d="M93.968,147.091c1.323-1.167,3.198-1.325,4.689-0.309c0.279,0.19,0.374,0.627,0.214,0.935
							c-0.163,0.315-0.532,0.407-0.812,0.216c-0.612-0.417-1.346-0.552-2.032-0.421c-0.347,0.066-0.682,0.2-0.985,0.397
							c-0.269,0.175-0.517,0.453-0.858,0.306c-0.081-0.035-0.154-0.092-0.215-0.163C93.761,147.806,93.716,147.313,93.968,147.091z"
							/>
						<path style="fill:#CC8A29;" d="M89.504,147.606c-1.765-0.811-3.9-0.506-5.319,0.845c-0.266,0.253-0.266,0.7-0.012,0.961
							c0.26,0.266,0.694,0.265,0.961,0.011c0.582-0.554,1.371-0.856,2.169-0.895c0.404-0.02,0.811,0.027,1.199,0.14
							c0.343,0.1,0.692,0.306,1.035,0.081c0.082-0.054,0.15-0.127,0.2-0.211C89.909,148.251,89.839,147.76,89.504,147.606z"/>
						<path style="fill:#C16B5B;" d="M94.186,154.755c0.065-0.007,0.119-0.057,0.131-0.125c0.171-1.009-0.199-1.303-0.54-1.371
							c-0.345-0.068-0.734,0.064-1.156,0.396c-0.065,0.051-0.076,0.146-0.025,0.212c0.053,0.064,0.148,0.075,0.212,0.025
							c0.348-0.275,0.654-0.389,0.91-0.337c0.305,0.061,0.407,0.406,0.302,1.025c-0.014,0.081,0.041,0.159,0.123,0.173
							C94.158,154.757,94.173,154.757,94.186,154.755z"/>
						<g>
							<path style="fill:#8E4136;" d="M88.858,156.489c0.46-0.71,1.673,0.035,3.119,0.149s2.762-0.43,3.104,0.344
								c0.433,0.978-1,3.211-3.371,3.024C89.34,159.817,88.276,157.386,88.858,156.489z"/>
							<path style="fill:#C16B5B;" d="M88.937,158.055c0.458-0.022,0.944-0.02,1.454,0.02c1.684,0.133,3.098,0.593,3.732,1.143
								c-0.597,0.505-1.414,0.865-2.413,0.786C90.286,159.892,89.345,158.969,88.937,158.055z"/>
							<path style="fill:#FFFFFF;" d="M91.913,157.451c-1.292-0.102-2.365-0.495-2.711-1.225c0.59-0.185,1.606,0.319,2.775,0.411
								c1.169,0.092,2.252-0.245,2.805,0.03C94.326,157.334,93.205,157.553,91.913,157.451z"/>
						</g>
					</g>
					<g>
						<path style="fill:#EFAD9C;" d="M69.68,158.829c1.742,1.649,4.214,1.865,5.523,0.483c1.309-1.382,0.958-3.84-0.783-5.489
							c-1.742-1.649-4.214-1.865-5.523-0.483C67.588,154.723,67.939,157.18,69.68,158.829z"/>
						<path style="fill:#C16B5B;" d="M70,154.119c0.611-0.419,1.481-0.504,2.326-0.223c0.421,0.139,0.737,0.332,0.967,0.588
							c0.304,0.339,0.43,0.794,0.329,1.188c-0.09,0.353-0.335,0.604-0.551,0.825c-0.156,0.16-0.304,0.312-0.378,0.48
							c-0.113,0.259-0.038,0.596,0.175,0.783c0.213,0.186,0.556,0.215,0.798,0.067c0.143-0.087,0.327-0.041,0.414,0.1
							c0.086,0.142,0.042,0.327-0.1,0.414c-0.156,0.095-0.329,0.152-0.508,0.172c-0.355,0.041-0.728-0.062-1-0.301
							c-0.41-0.358-0.548-0.979-0.33-1.478c0.118-0.269,0.32-0.476,0.498-0.659c0.179-0.183,0.348-0.357,0.398-0.555
							c0.051-0.198-0.025-0.448-0.194-0.636c-0.068-0.076-0.157-0.141-0.253-0.203c-0.298,0.032-0.659,0.166-0.823,0.393
							c-0.185,0.256-0.246,0.603-0.16,0.906c0.046,0.16-0.047,0.326-0.207,0.372c-0.016,0.005-0.032,0.008-0.049,0.01
							c-0.144,0.017-0.283-0.073-0.324-0.217c-0.139-0.483-0.045-1.016,0.25-1.424c0.11-0.152,0.257-0.263,0.413-0.357
							c-0.51-0.076-0.996,0.006-1.351,0.25c-0.439,0.301-0.719,0.98-0.419,1.473c0.086,0.142,0.041,0.327-0.1,0.414
							c-0.142,0.086-0.327,0.042-0.414-0.1C68.97,155.685,69.241,154.639,70,154.119z"/>
					</g>
				</g>
			</g>
		</g>
		<g>
			<path d="M30.98,192.107c-5.283,3.946-9.318,9.365-11.573,15.563c-0.219,0.601,0.74,0.86,0.957,0.264
				c2.159-5.933,6.057-11.191,11.117-14.97C31.987,192.586,31.493,191.724,30.98,192.107z"/>
			<path d="M21.176,192.261c-3.311,1.974-5.697,5.358-6.409,9.15c-0.117,0.624,0.839,0.892,0.957,0.264
				c0.667-3.55,2.847-6.706,5.953-8.557C22.225,192.791,21.727,191.933,21.176,192.261z"/>
			<path d="M144.379,182.854c2.103-3.153,3.639-6.668,4.522-10.354c0.148-0.619-0.801-0.911-0.949-0.289
				c-0.865,3.611-2.357,7.033-4.417,10.123C143.179,182.867,144.025,183.385,144.379,182.854z"/>
			<path d="M148.754,186.123c2.521-3.1,4.639-6.497,6.285-10.139c0.111-0.246,0.085-0.527-0.162-0.682
				c-0.204-0.129-0.572-0.081-0.683,0.162c-1.607,3.557-3.662,6.912-6.125,9.942C147.671,185.894,148.351,186.619,148.754,186.123z"
				/>
			<path d="M146.042,306.789c-1.594-5.446-3.673-10.742-6.204-15.821c-0.285-0.572-1.141-0.07-0.857,0.501
				c2.493,5.004,4.533,10.218,6.104,15.584C145.265,307.664,146.222,307.404,146.042,306.789z"/>
			<path d="M146.63,291.489c-0.267-0.579-1.122-0.076-0.857,0.501c1.97,4.281,3.286,8.838,3.931,13.505
				c0.087,0.63,1.043,0.362,0.957-0.264C150.004,300.473,148.638,295.852,146.63,291.489z"/>
		</g>
	</g>
	<g>
		<g>
			<g>
				<path style="fill:#9E6C52;" d="M224.629,181.508c-10.021-20.069-14.041-35.084-14.041-35.084l-9.094,2.254
					c2.444,8.763,5.516,17.999,10.041,32.078c0.535,1.672,1.066,3.323,1.579,4.948c0.07,0.222,0.142,0.442,0.215,0.661
					c0.921,2.752,2.812,5.087,5.342,6.509c0.014,0.008,0.027,0.015,0.041,0.023c1.757,0.976,3.473,1.91,5.153,2.79
					c22.512,11.816,38.008,16.045,38.008,16.045l-2.954-20.242C248.604,190.554,235.809,185.713,224.629,181.508z"/>
				<path style="fill:#9E6C52;" d="M198.46,145.387c-2.029-1.201-3.906-2.659-5.572-4.329c-0.206-0.206-0.413-0.422-0.532-0.689
					c-0.119-0.266-0.136-0.597,0.031-0.836c0.307-0.442,0.979-0.337,1.49-0.169c1.384,0.456,2.835,0.926,4.132,1.591
					c-1.598-1.536-3.196-3.072-4.729-4.672c-0.247-0.258-0.499-0.526-0.635-0.857c-0.136-0.331-0.133-0.743,0.099-1.015
					c0.224-0.262,0.61-0.335,0.948-0.27c0.338,0.065,0.641,0.245,0.937,0.422c1.774,1.063,3.528,2.163,5.302,3.227
					c-1.679-2.022-3.364-4.055-4.716-6.308c-0.159-0.265-0.316-0.54-0.367-0.845c-0.051-0.305,0.025-0.649,0.264-0.844
					c0.229-0.186,0.562-0.199,0.842-0.107c0.28,0.093,0.52,0.277,0.752,0.46c2.214,1.75,4.242,3.697,6.063,5.853
					c-1.197-2.076-2.188-4.271-2.952-6.542c-0.15-0.445-0.271-0.995,0.052-1.336c0.262-0.277,0.724-0.274,1.061-0.096
					c0.337,0.179,0.579,0.493,0.806,0.8c2.572,3.473,4.76,7.229,6.511,11.18c0.706-1.652,1.554-3.328,2.986-4.412
					c0.445-0.337,1.127-0.58,1.515-0.179c0.274,0.283,0.236,0.734,0.181,1.124c-0.237,1.658-0.474,3.316-0.711,4.975
					c-0.225,1.577-0.453,3.165-0.97,4.671c-0.517,1.507-1.346,2.945-2.589,3.94c-1.476,1.182-3.537,1.648-5.34,1.08
					c-1.214-0.382-2.262-1.195-3.071-2.177C199.438,148.045,198.947,146.563,198.46,145.387z"/>
			</g>
			<g>
				<g>
					<path style="fill:#1B1B28;" d="M158.869,399.663c-7.587,5.574-20.365,3.77-20.244,10.668
						c16.715,1.776,25.129-2.245,25.129-2.245l0.039,2.218l5.833-0.738c0,0,2.26-5.626,0.695-10.185L158.869,399.663z"/>
					<path style="fill:#9E6C52;" d="M158.869,399.663c1.964,4.004,9.214,1.708,11.452-0.282c0,0,44.535-61.258,75.341-95.859
						l13.549-18.968l-22.268-15.133C236.942,269.421,202.408,317.779,158.869,399.663z"/>
				</g>
				<g>
					<path style="fill:#1B1B28;" d="M289.279,399.381c-7.587,5.574-20.365,3.77-20.244,10.668
						c16.715,1.776,25.129-2.245,25.129-2.245l0.039,2.218l5.833-0.738c0,0,2.259-5.625,0.695-10.185L289.279,399.381z"/>
					<path style="fill:#9E6C52;" d="M236.168,358.321c17.809,15.128,33.369,24.766,53.111,41.06
						c3.559,2.485,9.696,2.122,11.452-0.282c0,0-14.779-15.332-50.597-55.498c9.077-13.146,12.588-19.008,21.406-33.048
						c3.885-6.187,7.24-12.529,9.559-19.457l1.152-4.485l-22.258-14.538l-13.135,20.056c0.448,0.253-6.268,18.596-15.367,43.465
						c0,0-4.363,10.683-3.294,13.944C229.19,352.568,236.168,358.321,236.168,358.321z"/>
				</g>
				<g>
					<path style="fill:#6F5E68;" d="M251.06,343.475c14.186-16.473,29.665-43.656,31.19-56.864l-50.626-9.477
						c0,0-40.937,58.34-63.232,100.099c0,0,6.399,6.917,18.184,8.198l53.6-75.039c-3.86,10.726-8.109,21.396-11.969,32.122
						c-0.922,2.562-1.856,5.323-1.152,7.954c0.729,2.724,3.042,4.682,5.233,6.457c13.076,10.596,26.153,21.193,39.229,31.789
						c5.504-0.492,10.288-5.11,11.848-10.411C272.825,366.978,261.6,354.802,251.06,343.475z"/>
					<g>
						
							<path style="fill:none;stroke:#604B58;stroke-width:0.5;stroke-linecap:round;stroke-linejoin:round;stroke-miterlimit:10;" d="
							M277.608,290.87c-7.881,18.769-18.46,36.403-31.311,52.19c10.991,11.88,22.169,23.737,33.16,35.617"/>
						
							<path style="fill:none;stroke:#604B58;stroke-width:0.5;stroke-linecap:round;stroke-linejoin:round;stroke-miterlimit:10;" d="
							M248.853,289.402c-2.167,6.521-4.737,12.909-7.689,19.114c-0.852-0.631-0.804-2.072-0.521-3.094
							c1.59-5.749,3.179-11.498,4.769-17.247"/>
						
							<path style="fill:none;stroke:#604B58;stroke-width:0.5;stroke-linecap:round;stroke-linejoin:round;stroke-miterlimit:10;" d="
							M236.431,309.348c-16.292,24.618-33.317,48.752-51.045,72.358"/>
					</g>
				</g>
			</g>
			<g>
				<g>
					<path style="fill:#DB9B7F;" d="M254.832,188.926l-21.974-5.051c0,0-5.014,7.211-2.311,16.383c0,0,16.24,6.903,19.252,14.278
						C249.8,214.537,256.395,200.495,254.832,188.926z"/>
				</g>
				<g>
					<path style="fill:#DB9B7F;" d="M289.398,233.458c-0.022,0.185-0.033,0.37-0.044,0.556c-0.142,1.983-0.305,4.021-0.479,6.124
						c-0.022,0.174-0.033,0.359-0.044,0.545c-0.174,1.994-0.371,4.032-0.578,6.124c-0.022,0.185-0.044,0.36-0.065,0.545
						c-0.196,2.005-0.425,4.043-0.665,6.124c-0.022,0.174-0.043,0.36-0.054,0.545c-0.24,2.005-0.501,4.054-0.774,6.135
						c-0.022,0.174-0.055,0.36-0.065,0.545c-0.283,2.016-0.567,4.054-0.883,6.124c-0.022,0.185-0.054,0.37-0.087,0.556
						c-0.305,2.027-0.621,4.065-0.981,6.124c-0.022,0.185-0.055,0.37-0.087,0.556c-0.338,2.038-0.708,4.086-1.09,6.146
						c-0.033,0.185-0.065,0.36-0.098,0.545c-0.371,1.94-0.752,3.901-1.155,5.862c0,0-28.594,7.355-50.627-9.48
						c0.632-0.905,1.351-2.387,2.125-4.348c0.065-0.163,0.131-0.338,0.207-0.512c0.632-1.645,1.308-3.596,2.016-5.786
						c0.055-0.174,0.109-0.36,0.163-0.534c0.578-1.831,1.177-3.814,1.787-5.928c0.054-0.174,0.098-0.349,0.152-0.523
						c0.545-1.907,1.111-3.912,1.667-5.993c0.054-0.174,0.098-0.36,0.153-0.545c0.523-1.951,1.057-3.977,1.58-6.037
						c0.055-0.174,0.098-0.36,0.142-0.534c0.512-1.994,1.024-4.021,1.536-6.07c0.044-0.174,0.087-0.36,0.131-0.534
						c0.501-2.016,1.003-4.054,1.493-6.091c0.044-0.185,0.087-0.37,0.131-0.556c0.49-2.038,0.981-4.086,1.449-6.113
						c0.044-0.174,0.087-0.36,0.131-0.534c4.631-19.723,8.347-37.573,8.347-37.573l13.915,2.888l11.115,2.158l10.505,5.873
						C290.368,199.841,290.815,213.277,289.398,233.458z"/>
					<g>
						<path style="fill:#CC7E62;" d="M283.503,280.206c-0.033,0.185-0.065,0.36-0.098,0.545c-4.402,0.229-8.848,0.381-13.294,0.327
							c-4.381-0.055-8.761-0.316-13.109-0.894c-8.783-1.188-16.672-3.705-23.254-7.399c0.065-0.163,0.131-0.338,0.207-0.512
							c6.538,3.683,14.373,6.2,23.112,7.366C265.817,280.816,274.731,280.653,283.503,280.206z"/>
						<path style="fill:#CC7E62;" d="M284.68,273.505c-0.022,0.185-0.055,0.37-0.087,0.556c-4.304,0.218-8.652,0.36-13,0.305
							c-4.38-0.054-8.761-0.305-13.109-0.893c-8.467-1.133-16.095-3.509-22.513-6.985c0.055-0.174,0.109-0.36,0.163-0.534
							c6.396,3.476,13.981,5.852,22.415,6.985C267.201,274.104,276.006,273.951,284.68,273.505z"/>
						<path style="fill:#CC7E62;" d="M285.748,266.825c-0.022,0.185-0.054,0.37-0.087,0.556c-4.174,0.196-8.38,0.338-12.586,0.283
							c-4.391-0.054-8.772-0.305-13.109-0.893c-8.26-1.111-15.713-3.4-22.044-6.745c0.054-0.174,0.098-0.349,0.152-0.523
							c6.298,3.334,13.73,5.623,21.957,6.734C268.542,267.37,277.205,267.25,285.748,266.825z"/>
						<path style="fill:#CC7E62;" d="M286.696,260.156c-0.022,0.174-0.055,0.36-0.065,0.545c-4.01,0.185-8.042,0.305-12.074,0.261
							c-4.381-0.054-8.761-0.316-13.12-0.894c-8.107-1.09-15.441-3.324-21.696-6.56c0.054-0.174,0.098-0.36,0.153-0.545
							c6.222,3.247,13.534,5.481,21.62,6.56C269.849,260.646,278.338,260.548,286.696,260.156z"/>
						<path style="fill:#CC7E62;" d="M287.524,253.476c-0.022,0.174-0.043,0.36-0.054,0.545c-3.792,0.174-7.606,0.272-11.431,0.229
							c-4.381-0.054-8.761-0.305-13.12-0.893c-7.998-1.068-15.245-3.258-21.445-6.429c0.055-0.174,0.098-0.36,0.142-0.534
							c6.179,3.171,13.403,5.35,21.38,6.429C271.113,253.912,279.373,253.846,287.524,253.476z"/>
						<path style="fill:#CC7E62;" d="M288.254,246.807c-0.022,0.185-0.044,0.36-0.065,0.545c-3.542,0.153-7.105,0.24-10.668,0.196
							c-4.381-0.054-8.772-0.305-13.12-0.894c-7.922-1.068-15.092-3.215-21.249-6.331c0.044-0.174,0.087-0.36,0.131-0.534
							c6.135,3.117,13.294,5.263,21.195,6.32C272.345,247.167,280.343,247.145,288.254,246.807z"/>
						<path style="fill:#CC7E62;" d="M288.875,240.138c-0.022,0.174-0.033,0.359-0.044,0.545c-3.269,0.12-6.549,0.196-9.829,0.163
							c-4.38-0.054-8.761-0.316-13.12-0.894c-7.857-1.057-14.983-3.182-21.107-6.255c0.044-0.185,0.087-0.37,0.131-0.556
							c6.102,3.084,13.218,5.22,21.053,6.266C273.543,240.432,281.258,240.443,288.875,240.138z"/>
						<path style="fill:#CC7E62;" d="M289.398,233.458c-0.022,0.185-0.033,0.37-0.044,0.556c-2.942,0.098-5.906,0.152-8.87,0.12
							c-4.381-0.055-8.761-0.305-13.12-0.894c-7.813-1.046-14.907-3.149-21.009-6.211c0.044-0.174,0.087-0.36,0.131-0.534
							c6.081,3.051,13.153,5.154,20.955,6.211C274.709,233.687,282.086,233.731,289.398,233.458z"/>
					</g>
				</g>
				<g>
					<g>
						<g>
							<path style="fill:#9E6C52;" d="M320.333,248.357c-16.069,1.591-29.994,3.299-40.141,3.965l-0.344-9.358
								c0,0,17.035-1.042,38.731-6.734c-10.107-6.373-21.711-12.701-31.636-15.691l0.893-20.619c0,0,16.938,7.475,38.828,26.338
								C342.714,240.089,333.261,247.078,320.333,248.357z"/>
						</g>
						<g>
							<path style="fill:#9E6C52;" d="M272.096,241.717c-0.648,0.085-1.638,0.112-1.956,0.843c-0.323,0.744,0.261,1.423,0.931,1.612
								c0.913,0.259,1.938,0.286,2.874,0.416c0.315,0.044,0.63,0.088,0.945,0.132c-1.85,0.664-3.794,1.033-5.754,1.07
								c-1.269,0.024-2.54-0.082-3.787-0.33c-0.953-0.19-2.119-0.465-2.791,0.493c-0.342,0.488-0.306,1.023-0.063,1.475
								c-0.235,0.525-0.179,1.183,0.206,1.702c0.106,0.143,0.233,0.269,0.37,0.387c-0.184,0.147-0.286,0.397-0.132,0.666
								c0.459,0.802,1.157,1.342,1.949,1.729c-0.019,0.183,0.037,0.375,0.225,0.505c3.572,2.464,8.117,3.197,12.269,2.123
								c1.941-0.502,4.215-1.423,5.606-2.98c1.717-1.923,1.078-4.556,0.345-6.768c-0.021-0.062-0.054-0.107-0.087-0.153
								c0.158-0.235,0.164-0.574-0.148-0.749C279.749,242.003,275.883,241.22,272.096,241.717z"/>
							<g>
								<path style="fill:#87553E;" d="M262.708,247.498c-0.001,0.094,0.061,0.182,0.155,0.209c3.255,0.95,6.735,1.113,10.063,0.47
									c0.116-0.023,0.185-0.142,0.171-0.253c-0.023-0.117-0.136-0.193-0.253-0.171c-3.26,0.629-6.67,0.47-9.859-0.46
									c-0.115-0.034-0.235,0.032-0.268,0.146C262.711,247.459,262.708,247.478,262.708,247.498z"/>
								<path style="fill:#87553E;" d="M263.573,249.656c-0.001,0.094,0.06,0.181,0.155,0.209c3.034,0.899,6.261,0.972,9.332,0.213
									c0.116-0.028,0.184-0.141,0.158-0.262c-0.029-0.116-0.146-0.186-0.262-0.157c-2.996,0.741-6.145,0.669-9.106-0.208
									c-0.113-0.034-0.234,0.032-0.268,0.146C263.576,249.616,263.573,249.637,263.573,249.656z"/>
								<path style="fill:#87553E;" d="M265.542,252.084c0.006,0.098,0.08,0.182,0.18,0.198c2.527,0.418,5.081,0.373,7.593-0.132
									c0.116-0.023,0.194-0.13,0.169-0.255c-0.024-0.117-0.138-0.192-0.255-0.169c-2.46,0.496-4.962,0.539-7.438,0.13
									c-0.117-0.02-0.228,0.06-0.247,0.178C265.541,252.051,265.54,252.068,265.542,252.084z"/>
							</g>
						</g>
					</g>
					<path style="fill:#DB9B7F;" d="M287.3,198.128l25.668,15.161c0,0-2.464,10.204-10.76,14.96c0,0-20.041-7.794-27.317-4.55
						C274.89,223.699,278.17,205.403,287.3,198.128z"/>
				</g>
			</g>
			<g>
				<path style="fill:#1B1B28;" d="M268.163,182.989c-1.339,0.507-2.957,0.173-3.986-0.823c-1.029-0.996-1.415-2.602-0.952-3.957
					c-1.66,0.091-3.324-0.949-4.149-2.392c-0.825-1.443-0.76-3.349,0.16-4.733c-1.486-0.16-2.875-1.303-3.349-2.721
					c-0.473-1.418-0.048-3.094,1.044-4.115c-1.818-0.804-3.084-2.762-3.064-4.749c0.02-1.987,1.311-3.905,3.145-4.671
					c-0.766-2.195-0.292-4.784,1.175-6.588c1.467-1.804,3.899-2.771,6.205-2.468c0.586-2.395,2.469-4.591,4.783-5.439
					c2.315-0.848,5.041-0.468,7.036,0.981c1.644-1.528,3.988-2.247,6.205-1.899c2.217,0.349,4.243,1.759,5.339,3.718
					c2.11-0.292,4.409,0.597,5.748,2.253c1.339,1.656,1.736,4.026,1.009,6.028c1.731,0.824,3.077,2.851,3.353,4.748
					c0.276,1.897-0.451,3.912-1.875,5.195c0.718,1.247,1.163,2.888,0.97,4.314c-0.193,1.426-1.194,2.801-2.599,3.109
					c0.526,1.311,0.396,3.05-0.326,4.263c-0.722,1.214-2.029,2.061-3.432,2.224c-1.895,3.721-5.243,6.674-9.191,8.036
					C277.468,184.664,271.949,184.75,268.163,182.989z"/>
				<g>
					<path style="fill:#9E6C52;" d="M267.989,154.721c5.326-9.248,23.225-5.635,24.45,1.844c2.519,15.384,0.192,21.622-4.149,25.142
						c-5.024,4.074-8.227,3.466-8.43,12.264c-1.971,4.64-9.134,5.113-11.317-0.262c0.412-11.651-3.383-20.576-3.383-20.576
						S265.793,158.534,267.989,154.721z"/>
					<path style="fill:#1B1B28;" d="M293.74,159.95c0.098-1.445-0.221-4.138-2.795-7.821c-2.549-3.646-10.185-4.708-16.741-3.653
						c-6.556,1.055-9.46,3.828-9.781,8.506c-0.321,4.678-0.933,10.515-0.933,10.515l2.489,1.991
						c4.035-2.558,3.878-12.646,3.878-12.646c0.667,1.109,1.785,1.805,3.065,1.994c1.28,0.189,2.637-0.222,3.597-1.091
						c0.746,1.336,2.237,2.317,3.748,2.559c1.511,0.242,3.122-0.244,4.248-1.28c0.468,1.121,1.544,1.944,2.742,2.145
						c1.198,0.2,2.485-0.253,3.293-1.16c0.223,0.433,0.543,0.763,0.957,1.018c0.414,0.255,0.95,0.343,1.396,0.147
						C293.349,160.976,293.707,160.435,293.74,159.95z"/>
					<g>
						<g>
							<path style="fill:#1B1B28;" d="M278.634,169.415c-0.015,0.636,0.489,1.164,1.126,1.179c0.637,0.015,1.164-0.489,1.179-1.126
								c0.015-0.636-0.489-1.164-1.126-1.179C279.176,168.274,278.648,168.778,278.634,169.415z"/>
							<path style="fill:#FFFFFF;" d="M279.793,169.126c-0.005,0.233,0.179,0.426,0.412,0.432c0.233,0.005,0.426-0.179,0.432-0.412
								c0.005-0.233-0.179-0.426-0.412-0.432S279.799,168.893,279.793,169.126z"/>
						</g>
						<g>
							<path style="fill:#1B1B28;" d="M287.547,169.621c-0.015,0.636,0.489,1.164,1.126,1.179c0.636,0.015,1.164-0.489,1.179-1.126
								c0.015-0.636-0.489-1.164-1.126-1.179C288.089,168.48,287.561,168.984,287.547,169.621z"/>
							<path style="fill:#FFFFFF;" d="M288.706,169.332c-0.005,0.233,0.179,0.426,0.412,0.432c0.233,0.005,0.426-0.179,0.432-0.412
								c0.005-0.233-0.179-0.426-0.412-0.432C288.905,168.915,288.712,169.099,288.706,169.332z"/>
						</g>
						<path style="fill:#1B1B28;" d="M286.88,165.091c1.471-0.974,3.35-0.873,4.687,0.339c0.25,0.227,0.284,0.672,0.084,0.955
							c-0.205,0.289-0.583,0.33-0.834,0.102c-0.549-0.497-1.257-0.732-1.955-0.697c-0.353,0.018-0.703,0.104-1.03,0.258
							c-0.29,0.136-0.574,0.377-0.892,0.185c-0.076-0.046-0.14-0.113-0.191-0.191C286.577,165.771,286.601,165.276,286.88,165.091z"
							/>
						<path style="fill:#1B1B28;" d="M282.388,164.987c-1.636-1.046-3.794-1.038-5.385,0.106c-0.298,0.214-0.359,0.657-0.143,0.95
							c0.22,0.299,0.651,0.358,0.95,0.143c0.653-0.469,1.476-0.66,2.271-0.588c0.403,0.036,0.799,0.138,1.168,0.303
							c0.326,0.146,0.643,0.398,1.013,0.223c0.089-0.042,0.166-0.105,0.228-0.182C282.701,165.682,282.699,165.186,282.388,164.987z
							"/>
						<path style="fill:#87553E;" d="M286.043,172.713c0.065,0.001,0.126-0.04,0.147-0.105c0.308-0.976-0.018-1.318-0.346-1.432
							c-0.333-0.115-0.736-0.038-1.2,0.233c-0.072,0.042-0.096,0.134-0.054,0.206c0.043,0.071,0.136,0.094,0.206,0.054
							c0.382-0.224,0.702-0.295,0.947-0.209c0.294,0.102,0.348,0.458,0.158,1.057c-0.025,0.079,0.019,0.163,0.099,0.189
							C286.014,172.71,286.029,172.712,286.043,172.713z"/>
						<g>
							<path style="fill:#8E4136;" d="M280.526,173.697c0.553-0.64,1.652,0.264,3.069,0.577c1.417,0.312,2.795-0.046,3.027,0.767
								c0.294,1.028-1.432,3.043-3.755,2.531C280.546,177.06,279.827,174.506,280.526,173.697z"/>
							<path style="fill:#C16B5B;" d="M280.389,175.26c0.456,0.041,0.938,0.11,1.438,0.22c1.65,0.364,2.987,1.014,3.539,1.645
								c-0.66,0.419-1.52,0.662-2.498,0.447C281.473,177.264,280.667,176.22,280.389,175.26z"/>
							<path style="fill:#FFFFFF;" d="M283.42,175.07c-1.265-0.279-2.274-0.816-2.516-1.586c0.61-0.102,1.547,0.537,2.692,0.789
								c1.145,0.252,2.264,0.067,2.774,0.416C285.826,175.286,284.685,175.349,283.42,175.07z"/>
						</g>
					</g>
					<g>
						<path style="fill:#9E6C52;" d="M261.209,173.378c1.498,1.873,3.918,2.427,5.404,1.238c1.487-1.189,1.477-3.671-0.021-5.544
							c-1.498-1.873-3.918-2.427-5.404-1.238C259.702,169.023,259.711,171.505,261.209,173.378z"/>
						<path style="fill:#87553E;" d="M262.173,168.756c0.663-0.331,1.536-0.295,2.334,0.099c0.398,0.196,0.684,0.43,0.877,0.715
							c0.255,0.378,0.317,0.846,0.162,1.222c-0.138,0.337-0.414,0.552-0.659,0.742c-0.177,0.137-0.344,0.267-0.44,0.424
							c-0.148,0.241-0.12,0.585,0.066,0.799c0.185,0.214,0.521,0.289,0.781,0.176c0.153-0.066,0.33,0.004,0.396,0.156
							c0.066,0.152-0.004,0.33-0.156,0.396c-0.167,0.073-0.347,0.105-0.527,0.101c-0.357-0.008-0.712-0.162-0.949-0.436
							c-0.356-0.411-0.408-1.046-0.123-1.509c0.153-0.25,0.382-0.428,0.584-0.584c0.202-0.157,0.393-0.306,0.471-0.495
							c0.078-0.19,0.037-0.447-0.105-0.657c-0.057-0.085-0.136-0.161-0.223-0.236c-0.299-0.01-0.675,0.074-0.869,0.276
							c-0.218,0.229-0.327,0.564-0.283,0.876c0.023,0.165-0.092,0.317-0.256,0.34c-0.017,0.003-0.033,0.003-0.049,0.003
							c-0.145-0.003-0.27-0.111-0.291-0.259c-0.071-0.497,0.095-1.012,0.444-1.376c0.13-0.135,0.29-0.225,0.458-0.297
							c-0.495-0.146-0.987-0.131-1.373,0.062c-0.477,0.238-0.847,0.872-0.617,1.401c0.066,0.153-0.004,0.33-0.156,0.396
							c-0.153,0.066-0.329-0.003-0.396-0.156C260.938,170.165,261.351,169.167,262.173,168.756z"/>
					</g>
				</g>
			</g>
		</g>
		<g>
			<path d="M192.288,158.456c2.934,9.681,6.399,19.2,10.387,28.497c1.128,2.63,2.299,5.241,3.508,7.834
				c0.267,0.572,1.213,0.272,0.944-0.306c-4.276-9.168-8.047-18.569-11.281-28.155c-0.915-2.711-1.785-5.437-2.615-8.176
				C193.047,157.538,192.103,157.846,192.288,158.456z"/>
			<path d="M200.128,161.88c0.7,3.969,1.878,7.827,3.542,11.499c0.261,0.576,1.208,0.275,0.944-0.306
				c-1.626-3.587-2.811-7.366-3.495-11.246C201.009,161.205,200.017,161.252,200.128,161.88z"/>
			<path d="M338.123,231.987c-3.174-5.135-6.738-10.021-10.651-14.618c-0.414-0.487-1.113,0.218-0.702,0.701
				c3.86,4.533,7.366,9.353,10.496,14.417C337.601,233.029,338.46,232.532,338.123,231.987z"/>
			<path d="M335.843,217.871c-0.449-0.456-1.15,0.246-0.702,0.702c2.177,2.21,3.582,5.063,4.039,8.129
				c0.094,0.629,1.05,0.362,0.957-0.264C339.656,223.212,338.129,220.192,335.843,217.871z"/>
			<path d="M201.568,312.294c-6.971,6.718-13.276,14.108-18.823,22.043c-0.367,0.524,0.493,1.021,0.857,0.501
				c5.499-7.866,11.758-15.182,18.668-21.842C202.73,312.552,202.028,311.851,201.568,312.294z"/>
			<path d="M191.184,311.302c-4.096,4.101-7.968,8.42-11.597,12.94c-0.396,0.493,0.302,1.2,0.702,0.702
				c3.629-4.52,7.501-8.839,11.597-12.94C192.338,311.552,191.636,310.85,191.184,311.302z"/>
		</g>
	</g>
	<g>
		<path style="fill:#6F5E68;" d="M182.248,206.781c-0.003-0.006-0.003-0.013-0.006-0.019l-7.39-12.895
			c-0.173-0.302-0.481-0.502-0.828-0.536c-0.346-0.034-0.687,0.101-0.916,0.362l-10.559,12.042
			c-0.304,0.346-0.354,0.846-0.125,1.245l7.191,12.548c-1.283,0.545-2.344,2.149-2.589,4.16c-0.319,2.62,0.865,4.919,2.644,5.136
			c1.78,0.217,3.481-1.731,3.8-4.351c0.185-1.516-0.145-2.911-0.791-3.871c-0.019-0.047-0.021-0.096-0.047-0.141l-7.957-13.885
			l9.057-10.33l5.437,9.487c-1.272,0.555-2.32,2.154-2.563,4.151c-0.319,2.62,0.865,4.919,2.644,5.136
			c1.779,0.217,3.481-1.731,3.8-4.351C183.236,209.144,182.902,207.742,182.248,206.781z"/>
		<path style="fill:#6F5E68;" d="M45.874,284.952c0.001-0.005,0.006-0.01,0.007-0.015L48.7,273.08
			c0.066-0.277-0.006-0.57-0.194-0.785c-0.188-0.215-0.468-0.325-0.751-0.298l-13.071,1.274c-0.376,0.036-0.687,0.307-0.774,0.674
			l-2.742,11.537c-1.073-0.395-2.607-0.03-3.882,1.034c-1.661,1.387-2.243,3.426-1.301,4.555c0.942,1.128,3.053,0.918,4.714-0.469
			c0.961-0.803,1.547-1.822,1.699-2.758c0.015-0.038,0.041-0.069,0.051-0.111l3.035-12.766l11.212-1.093l-2.073,8.723
			c-1.072-0.382-2.596-0.014-3.862,1.044c-1.661,1.387-2.243,3.426-1.301,4.555c0.942,1.128,3.053,0.918,4.714-0.469
			C45.139,286.919,45.726,285.893,45.874,284.952z"/>
		<path style="fill:#6F5E68;" d="M202.811,244.683c0-0.414-0.336-0.75-0.75-0.75c-0.414,0-0.75,0.336-0.75,0.75v10.069
			c-0.963-0.114-2.159,0.488-3.002,1.617c-1.1,1.472-1.18,3.271-0.181,4.018c1,0.747,2.702,0.159,3.802-1.313
			c0.638-0.854,0.922-1.814,0.862-2.619c0.004-0.032,0.019-0.061,0.019-0.094V244.683z"/>
		<path style="fill:#6F5E68;" d="M120.746,118.164c0-0.414-0.336-0.75-0.75-0.75s-0.75,0.336-0.75,0.75v10.069
			c-0.963-0.114-2.159,0.488-3.002,1.617c-1.1,1.472-1.181,3.271-0.181,4.018c1,0.747,2.702,0.159,3.802-1.313
			c0.638-0.854,0.922-1.814,0.862-2.619c0.004-0.032,0.019-0.061,0.019-0.094V118.164z"/>
		<path style="fill:#6F5E68;" d="M284.409,97.614c-0.493-0.591-1.182-0.978-1.774-1.47c-0.592-0.492-1.129-0.901-1.091-1.67
			c0-0.414-0.336-0.75-0.75-0.75c-0.414,0-0.75,0.336-0.75,0.75v9.973c-0.963-0.114-2.158,0.488-3.002,1.617
			c-1.1,1.472-1.181,3.271-0.181,4.018c1,0.747,2.702,0.159,3.802-1.313c0.618-0.828,0.902-1.753,0.865-2.542
			c0.003-0.026,0.015-0.049,0.015-0.076v-7.917c0.36,0.136,0.783,0.167,1.164,0.267c0.629,0.165,1.187,0.585,1.519,1.145
			c0.332,0.559,0.445,1.23,0.289,1.861C285.352,100.383,285.306,98.688,284.409,97.614z"/>
		<path style="fill:#6F5E68;" d="M305.99,285.689c-0.209-0.741-0.68-1.375-1.02-2.066c-0.34-0.691-0.662-1.283-0.315-1.97
			c0.169-0.378-0.001-0.822-0.379-0.991c-0.378-0.169-0.822,0.001-0.991,0.379l-4.07,9.105c-0.833-0.497-2.17-0.435-3.4,0.251
			c-1.605,0.895-2.413,2.504-1.805,3.594c0.608,1.09,2.402,1.248,4.007,0.353c0.902-0.503,1.539-1.232,1.827-1.968
			c0.013-0.023,0.034-0.039,0.045-0.063l3.231-7.228c0.273,0.271,0.647,0.471,0.954,0.718c0.507,0.407,0.845,1.019,0.92,1.665
			c0.075,0.646-0.095,1.305-0.496,1.817C305.722,288.602,306.371,287.035,305.99,285.689z"/>
		<path style="fill:#6F5E68;" d="M455.376,244.593c-0.047-1.196-0.528-2.327-0.79-3.495c-0.262-1.168-0.535-2.182,0.241-3.093
			c0.393-0.51,0.298-1.243-0.212-1.636c-0.51-0.393-1.243-0.298-1.636,0.212l-9.468,12.285c-1.079-1.055-3.122-1.448-5.233-0.858
			c-2.752,0.769-4.56,2.909-4.037,4.778c0.523,1.869,3.177,2.761,5.93,1.992c1.547-0.433,2.776-1.303,3.48-2.311
			c0.028-0.03,0.066-0.046,0.091-0.079l7.517-9.753c0.314,0.51,0.806,0.948,1.181,1.434c0.618,0.8,0.906,1.848,0.784,2.852
			s-0.619,1.938-1.411,2.567C453.909,248.9,455.461,246.767,455.376,244.593z"/>
	</g>
	<g>
		<g>
			<path style="fill:#CC7E62;" d="M391.454,364.951h-39.407v-9.237c0-4.294,3.494-7.788,7.787-7.788h23.832
				c4.293,0,7.787,3.494,7.787,7.788V364.951z M354.251,362.747h34.999v-7.033c0-3.08-2.505-5.585-5.584-5.585h-23.832
				c-3.079,0-5.584,2.505-5.584,5.585V362.747z"/>
			<path style="fill:#DB9B7F;" d="M407.875,410.772h-72.249c-12.346,0-22.354-10.008-22.354-22.354v-4.554
				c0-12.346,10.008-22.354,22.354-22.354h72.249c12.346,0,22.354,10.008,22.354,22.354v4.554
				C430.229,400.764,420.221,410.772,407.875,410.772z"/>
			<circle style="fill:#CC7E62;" cx="404.393" cy="386.141" r="20.253"/>
			<circle style="fill:#CC7E62;" cx="339.107" cy="386.141" r="20.253"/>
			
				<ellipse transform="matrix(0.1609 -0.987 0.987 0.1609 -96.5615 658.7063)" style="fill:#DB9B7F;" cx="339.107" cy="386.141" rx="14.041" ry="14.041"/>
			<path style="fill:#CC7E62;" d="M345.006,386.141c0,3.258-2.641,5.899-5.899,5.899c-3.258,0-5.899-2.641-5.899-5.899
				c0-3.258,2.641-5.899,5.899-5.899C342.365,380.243,345.006,382.884,345.006,386.141z"/>
			
				<ellipse transform="matrix(0.9729 -0.2311 0.2311 0.9729 -78.3026 103.929)" style="fill:#DB9B7F;" cx="404.393" cy="386.141" rx="14.041" ry="14.041"/>
			<path style="fill:#CC7E62;" d="M398.494,386.141c0,3.258,2.641,5.899,5.899,5.899s5.899-2.641,5.899-5.899
				c0-3.258-2.641-5.899-5.899-5.899S398.494,382.884,398.494,386.141z"/>
			<rect x="363.59" y="376.971" style="fill:#CC7E62;" width="16.32" height="4.585"/>
			<path style="fill:#CC7E62;" d="M378.808,382.658v17.096h-14.116v-17.096H378.808 M379.91,381.556h-16.32v19.3h16.32V381.556
				L379.91,381.556z"/>
			<g>
				<g>
					<path style="fill:#CC7E62;" d="M361.438,367.381c0,0.824-0.668,1.492-1.492,1.492c-0.824,0-1.492-0.668-1.492-1.492
						s0.668-1.492,1.492-1.492C360.77,365.889,361.438,366.557,361.438,367.381z"/>
				</g>
				<g>
					<path style="fill:#CC7E62;" d="M367.34,367.381c0,0.824-0.668,1.492-1.492,1.492s-1.492-0.668-1.492-1.492
						s0.668-1.492,1.492-1.492S367.34,366.557,367.34,367.381z"/>
				</g>
				<g>
					<path style="fill:#CC7E62;" d="M373.242,367.381c0,0.824-0.668,1.492-1.492,1.492s-1.492-0.668-1.492-1.492
						s0.668-1.492,1.492-1.492S373.242,366.557,373.242,367.381z"/>
				</g>
				<g>
					<path style="fill:#CC7E62;" d="M379.144,367.381c0,0.824-0.668,1.492-1.492,1.492s-1.492-0.668-1.492-1.492
						s0.668-1.492,1.492-1.492S379.144,366.557,379.144,367.381z"/>
				</g>
				<g>
					<path style="fill:#CC7E62;" d="M385.046,367.381c0,0.824-0.668,1.492-1.492,1.492c-0.824,0-1.492-0.668-1.492-1.492
						s0.668-1.492,1.492-1.492C384.378,365.889,385.046,366.557,385.046,367.381z"/>
				</g>
			</g>
		</g>
		<g>
			<path style="fill:#E1695B;" d="M226.267,410.805h-16.144V370.54c0-1.745,1.414-3.159,3.159-3.159h9.825
				c1.745,0,3.159,1.414,3.159,3.159V410.805z"/>
			<rect x="210.123" y="376.37" style="fill:#D14A3F;" width="16.144" height="2.339"/>
			<rect x="210.123" y="375.069" style="fill:#1B1B28;" width="16.144" height="1.454"/>
		</g>
		<g>
			<polygon style="fill:#D14A3F;" points="91.913,393.448 90.91,393.113 93.375,385.717 100.254,381.556 100.802,382.461 
				94.255,386.422 			"/>
			<polygon style="fill:#DB9B7F;" points="98.202,410.805 87.864,410.805 85.561,390.908 100.505,390.908 			"/>
			<rect x="83.884" y="390.077" style="fill:#E1695B;" width="18.297" height="1.647"/>
		</g>
	</g>
	<g>
		<g>
			<g>
				<g>
					<g>
						<g>
							<path style="fill:#E1695B;" d="M372.947,399.044c0.141,1.642,0.052,2.823,0.052,2.823s-12.712,6.606-28.99,9.868
								c-0.247-0.755-0.305-1.452-0.18-2.11c0.882-4.918,11.253-7.312,16.112-13.914l10.712-3.653
								C372.218,394.193,372.772,396.986,372.947,399.044z"/>
							<path style="fill:#36303A;" d="M372.947,399.044c0.141,1.642,0.052,2.823,0.052,2.823s-12.712,6.606-28.99,9.868
								c-0.247-0.755-0.305-1.452-0.18-2.11C353.972,407.494,363.803,403.925,372.947,399.044z"/>
						</g>
						<g>
							
								<path style="fill:none;stroke:#FFFFFF;stroke-width:0.5;stroke-linecap:round;stroke-linejoin:round;stroke-miterlimit:10;" d="
								M358.242,398.468c0.711,0.369,1.345,0.884,1.852,1.503"/>
							
								<path style="fill:none;stroke:#FFFFFF;stroke-width:0.5;stroke-linecap:round;stroke-linejoin:round;stroke-miterlimit:10;" d="
								M357.111,399.269c0.711,0.369,1.345,0.884,1.852,1.503"/>
							
								<path style="fill:none;stroke:#FFFFFF;stroke-width:0.5;stroke-linecap:round;stroke-linejoin:round;stroke-miterlimit:10;" d="
								M355.978,400.218c0.711,0.369,1.345,0.884,1.852,1.503"/>
						</g>
					</g>
					<path style="fill:#6B8383;" d="M356.456,329.862c5.791-3.86,48.643-69.857,50.074-72.021l-39.038-2.788
						c0,0-12.099,25.872-30.121,67.981c-1.717,4.013-1.869,8.524-0.418,12.64c6.091,17.275,14.185,39.371,22.985,60.036
						c4.278,1.048,8.928-0.817,10.707-3.652C361.42,355.919,362.442,339.058,356.456,329.862"/>
					<g>
						
							<path style="fill:none;stroke:#567776;stroke-width:0.5;stroke-linecap:round;stroke-linejoin:round;stroke-miterlimit:10;" d="
							M387.853,279.055c-11.292,17.188-21.819,35.254-36.477,50.514c10.199,10.786,8.719,40.035,16.077,62.202"/>
					</g>
				</g>
				<g>
					<g>
						<g>
							<path style="fill:#E1695B;" d="M476.987,378.37c1.091,1.235,1.722,2.237,1.722,2.237s-6.279,12.877-17.413,25.19
								c-0.648-0.459-1.11-0.985-1.401-1.587c-2.22-4.477,4.686-12.576,4.658-20.772l6.43-9.314
								C473.512,374.906,475.621,376.82,476.987,378.37z"/>
							<path style="fill:#36303A;" d="M476.987,378.37c1.091,1.235,1.722,2.237,1.722,2.237s-6.279,12.877-17.413,25.19
								c-0.648-0.459-1.11-0.985-1.401-1.587C466.775,396.457,472.548,387.735,476.987,378.37z"/>
						</g>
						<g>
							
								<path style="fill:none;stroke:#FFFFFF;stroke-width:0.5;stroke-linecap:round;stroke-linejoin:round;stroke-miterlimit:10;" d="
								M464.83,386.663c0.791-0.127,1.607-0.091,2.383,0.105"/>
							
								<path style="fill:none;stroke:#FFFFFF;stroke-width:0.5;stroke-linecap:round;stroke-linejoin:round;stroke-miterlimit:10;" d="
								M464.399,387.98c0.79-0.127,1.607-0.091,2.383,0.104"/>
							
								<path style="fill:none;stroke:#FFFFFF;stroke-width:0.5;stroke-linecap:round;stroke-linejoin:round;stroke-miterlimit:10;" d="
								M464.054,389.418c0.791-0.127,1.607-0.091,2.383,0.104"/>
						</g>
					</g>
					<g>
						<path style="fill:#6B8383;" d="M422.542,332.612c1.772-4.931-2.752-67.049-5.593-75.074c-1.9-5.367-24.528-1.689-30.088,8.403
							c5.775,28.425,5.788,28.419,16.284,72.55c1.01,4.247,3.574,7.961,7.192,10.403c15.18,10.251,34.841,23.182,54.216,34.543
							c4.06-1.706,6.686-5.973,6.427-9.309C442.045,350.589,432.826,336.435,422.542,332.612"/>
						
							<path style="fill:none;stroke:#567776;stroke-width:0.5;stroke-linecap:round;stroke-linejoin:round;stroke-miterlimit:10;" d="
							M414.678,260.5c3.262,24.046,5.536,50.686,4.152,74.913c11.624,3.165,15.44,10.114,22.302,16.197
							c8.445,7.486,17.636,15.615,26.082,23.101"/>
					</g>
				</g>
			</g>
			<g>
				<path style="fill:#5B3D31;" d="M397.516,125.804c-7.949,0.063-13.378,6.713-15.211,13.974
					c-1.474,5.84-1.944,11.915-1.656,17.923c0.267,5.568,0.769,11.714,3.621,16.632c4.057,6.996,12.027,10.381,19.69,10.889
					c4.878,0.323,10.246-0.563,13.596-4.406c2.586-2.967,3.507-7.161,4.036-11.182c1.23-9.335,0.863-19.036-2.104-27.889
					c-0.744-2.22-1.701-4.403-3.198-6.122c-2.338-2.686-5.664-2.848-5.664-2.848S408.777,125.714,397.516,125.804z"/>
				<g>
					<g>
						<path style="fill:#FFB681;" d="M355.486,152.974c-4.827-21.906-5.693-43.487-5.693-43.487l-9.369-0.031
							c0.234,9.094,1.589,24.839,2.546,39.597c0.112,1.752,0.224,3.483,0.326,5.184c0.014,0.232,0.03,0.464,0.048,0.694
							c0.223,2.894,1.488,5.619,3.595,7.615c0.011,0.011,0.023,0.021,0.034,0.032c1.467,1.375,2.902,2.699,4.318,3.962
							c18.953,16.947,32.951,24.824,32.951,24.824l2.069-20.351C376.533,167.591,365.304,159.778,355.486,152.974z"/>
						<path style="fill:#FFB681;" d="M338.151,104.813c-1.676-1.659-3.14-3.531-4.349-5.556c-0.149-0.251-0.298-0.51-0.348-0.797
							c-0.051-0.287,0.014-0.612,0.233-0.804c0.405-0.354,1.032-0.089,1.486,0.199c1.232,0.779,2.524,1.589,3.62,2.55
							c-1.175-1.879-2.351-3.758-3.448-5.683c-0.177-0.311-0.355-0.632-0.407-0.986c-0.051-0.354,0.052-0.753,0.343-0.96
							c0.281-0.199,0.673-0.176,0.985-0.031c0.312,0.145,0.563,0.394,0.806,0.637c1.462,1.464,2.894,2.958,4.356,4.422
							c-1.135-2.37-2.275-4.752-3.037-7.268c-0.09-0.296-0.175-0.601-0.15-0.909c0.025-0.308,0.182-0.623,0.462-0.754
							c0.268-0.125,0.594-0.057,0.843,0.102s0.437,0.395,0.617,0.63c1.721,2.237,3.213,4.619,4.454,7.154
							c-0.655-2.305-1.081-4.675-1.269-7.064c-0.037-0.468-0.02-1.031,0.376-1.283c0.322-0.205,0.769-0.09,1.053,0.166
							c0.284,0.256,0.441,0.619,0.587,0.972c1.648,3.995,2.854,8.171,3.59,12.43c1.088-1.43,2.318-2.849,3.972-3.551
							c0.514-0.218,1.235-0.288,1.513,0.195c0.197,0.341,0.05,0.77-0.099,1.135c-0.634,1.55-1.268,3.101-1.902,4.651
							c-0.603,1.474-1.211,2.959-2.079,4.294c-0.868,1.335-2.023,2.528-3.472,3.19c-1.72,0.787-3.832,0.736-5.443-0.254
							c-1.084-0.666-1.903-1.71-2.448-2.86C338.452,107.629,338.336,106.071,338.151,104.813z"/>
					</g>
					<g>
						<path style="fill:#FFB681;" d="M470.113,129.525c0,0-6.817,20.494-17.53,40.202c-11.319,3.813-24.085,7.241-34.428,7.817
							l-3.981,20.253c0,0,15.768-2.847,38.677-13.872c1.71-0.821,3.457-1.695,5.247-2.609c0.014-0.007,0.028-0.014,0.041-0.021
							c2.578-1.333,4.55-3.601,5.566-6.319c0.081-0.216,0.16-0.434,0.238-0.653c0.57-1.606,1.157-3.238,1.751-4.89
							c5.013-13.913,10.681-28.664,13.428-37.337L470.113,129.525z"/>
						<path style="fill:#FFB681;" d="M481.359,128.227c1.676-1.659,3.141-3.531,4.349-5.556c0.149-0.25,0.297-0.51,0.348-0.797
							c0.051-0.287-0.014-0.612-0.233-0.804c-0.405-0.354-1.032-0.089-1.486,0.199c-1.232,0.779-2.524,1.589-3.62,2.55
							c1.175-1.879,2.351-3.758,3.448-5.683c0.177-0.311,0.356-0.632,0.407-0.986c0.051-0.354-0.052-0.753-0.344-0.961
							c-0.281-0.199-0.673-0.176-0.985-0.031c-0.312,0.145-0.563,0.394-0.806,0.637c-1.462,1.464-2.894,2.958-4.356,4.422
							c1.135-2.37,2.275-4.752,3.037-7.267c0.089-0.296,0.175-0.601,0.15-0.909c-0.025-0.308-0.182-0.623-0.462-0.754
							c-0.268-0.125-0.594-0.057-0.843,0.102c-0.249,0.159-0.437,0.395-0.617,0.63c-1.721,2.237-3.213,4.619-4.454,7.154
							c0.655-2.305,1.081-4.676,1.269-7.065c0.037-0.468,0.02-1.031-0.376-1.283c-0.322-0.205-0.769-0.09-1.053,0.166
							c-0.284,0.256-0.441,0.619-0.587,0.972c-1.648,3.995-2.854,8.171-3.59,12.43c-1.088-1.43-2.318-2.849-3.972-3.551
							c-0.513-0.218-1.235-0.288-1.513,0.195c-0.197,0.341-0.05,0.77,0.099,1.135c0.634,1.55,1.268,3.101,1.902,4.651
							c0.603,1.474,1.211,2.959,2.079,4.294c0.868,1.335,2.023,2.528,3.472,3.19c1.72,0.787,3.832,0.736,5.443-0.254
							c1.084-0.666,1.903-1.71,2.448-2.86S481.174,129.486,481.359,128.227z"/>
					</g>
					<g>
						<g>
							<path style="fill:#FFB681;" d="M367.493,255.054c2.843,1.713,25.457,8.982,49.455,2.484
								c-8.26-31.028,6.5-62.103,6.511-62.102c0.573-14.09,0.912-18.561,1.086-18.616c-10.372,0.883-17.318,0.225-17.318,0.225
								c-1.392-0.354-7.962-1.672-11.194-2.592c-5.986-1.705-9.032-3.345-10.358-3.665c-1.333,1.643-5.407,11.408-7.105,20.578
								c-3.091,3.528-5.069,7.851-5.404,12.553c-0.217,3.04,0.249,6.231,1.551,9.471c0,0,0.011,0.001,0.011,0.012
								c0.425,1.053,0.953,2.09,1.629,3.126C374.76,231.692,373.452,240.232,367.493,255.054z"/>
						</g>
						<g>
							<g>
								<g>
									<g>
										<path style="fill:#E1695B;" d="M407.228,177.044c-1.392-0.354-7.962-1.672-11.194-2.592
											c-5.986-1.705-9.032-3.345-10.358-3.665c-1.332,1.643-5.407,11.407-7.105,20.578c-3.091,3.528-5.069,7.851-5.404,12.553
											c-0.217,3.04,0.249,6.231,1.551,9.47c0,0,0.011,0.001,0.011,0.012c0.425,1.053,0.953,2.09,1.629,3.126
											c-1.084,10.292-2.473,19.579-4.596,26.682c2.668,0.838,5.374,1.549,8.109,2.136c6.616,1.421,13.401,2.165,20.17,2.048
											c5.009-0.087,9.885-1.026,14.773-1.942c-2.514-26.525,8.636-50.015,8.646-50.014c0.573-14.09,0.912-18.561,1.086-18.616
											C414.174,177.702,407.228,177.044,407.228,177.044z"/>
									</g>
								</g>
							</g>
							<g>
								<g>
									<path style="fill:#D14A3F;" d="M397.717,206.675c-0.204-0.156-0.415-0.285-0.628-0.399
										c0.235-0.057,0.472-0.127,0.709-0.226c1.555-0.647,2.484-1.967,2.076-2.948c-0.408-0.981-2-1.252-3.554-0.605
										c-0.237,0.099-0.454,0.217-0.66,0.344c0.068-0.232,0.126-0.472,0.159-0.727c0.217-1.67-0.461-3.135-1.515-3.272
										c-1.054-0.137-2.084,1.106-2.301,2.776c-0.033,0.255-0.039,0.502-0.032,0.743c-0.167-0.175-0.346-0.345-0.55-0.501
										c-1.338-1.023-2.945-1.168-3.591-0.324c-0.645,0.844-0.084,2.358,1.254,3.38c0.204,0.156,0.415,0.285,0.628,0.4
										c-0.235,0.057-0.472,0.127-0.709,0.226c-1.555,0.647-2.484,1.967-2.076,2.948c0.408,0.981,2,1.252,3.554,0.605
										c0.237-0.099,0.454-0.217,0.66-0.344c-0.068,0.232-0.126,0.472-0.159,0.727c-0.217,1.67,0.461,3.135,1.515,3.271
										c1.054,0.137,2.084-1.106,2.301-2.776c0.033-0.255,0.039-0.502,0.032-0.743c0.167,0.175,0.346,0.345,0.55,0.501
										c1.338,1.023,2.945,1.168,3.591,0.324C399.616,209.211,399.055,207.698,397.717,206.675z"/>
									<path style="fill:#D14A3F;" d="M411.233,208.633c-0.151-0.115-0.307-0.21-0.464-0.295c0.173-0.042,0.348-0.094,0.523-0.167
										c1.148-0.478,1.834-1.452,1.532-2.176c-0.301-0.724-1.476-0.924-2.624-0.446c-0.175,0.073-0.335,0.16-0.487,0.254
										c0.05-0.171,0.093-0.348,0.117-0.537c0.16-1.233-0.341-2.314-1.118-2.415c-0.778-0.101-1.538,0.816-1.698,2.049
										c-0.024,0.188-0.029,0.371-0.024,0.549c-0.123-0.129-0.255-0.255-0.406-0.37c-0.988-0.755-2.174-0.862-2.651-0.239
										c-0.477,0.623-0.062,1.74,0.926,2.496c0.151,0.115,0.307,0.21,0.463,0.295c-0.173,0.042-0.348,0.094-0.523,0.167
										c-1.148,0.478-1.834,1.452-1.532,2.176c0.301,0.724,1.476,0.924,2.624,0.446c0.175-0.073,0.335-0.161,0.487-0.254
										c-0.05,0.171-0.093,0.348-0.117,0.537c-0.16,1.233,0.341,2.314,1.118,2.415c0.778,0.101,1.538-0.816,1.698-2.049
										c0.024-0.188,0.029-0.371,0.024-0.549c0.123,0.129,0.255,0.255,0.406,0.37c0.988,0.755,2.174,0.862,2.651,0.239
										C412.635,210.506,412.22,209.389,411.233,208.633z"/>
									<path style="fill:#D14A3F;" d="M383.178,203.896c-0.151-0.115-0.307-0.21-0.464-0.295c0.173-0.042,0.348-0.094,0.524-0.167
										c1.148-0.478,1.834-1.452,1.532-2.176c-0.301-0.724-1.476-0.924-2.624-0.446c-0.175,0.073-0.335,0.16-0.487,0.254
										c0.05-0.171,0.093-0.348,0.117-0.537c0.16-1.233-0.341-2.314-1.118-2.415c-0.778-0.101-1.538,0.816-1.698,2.049
										c-0.024,0.188-0.029,0.371-0.024,0.549c-0.123-0.129-0.255-0.255-0.406-0.37c-0.988-0.755-2.174-0.862-2.651-0.239
										c-0.477,0.623-0.062,1.74,0.926,2.496c0.151,0.115,0.307,0.21,0.463,0.295c-0.173,0.042-0.348,0.094-0.523,0.167
										c-1.148,0.478-1.834,1.452-1.532,2.176c0.301,0.724,1.476,0.924,2.624,0.446c0.175-0.073,0.335-0.16,0.487-0.254
										c-0.05,0.171-0.093,0.348-0.117,0.537c-0.16,1.233,0.341,2.314,1.118,2.415c0.778,0.101,1.538-0.816,1.699-2.049
										c0.024-0.188,0.029-0.371,0.024-0.549c0.123,0.129,0.255,0.255,0.406,0.37c0.988,0.755,2.174,0.862,2.651,0.239
										C384.58,205.768,384.166,204.651,383.178,203.896z"/>
								</g>
							</g>
						</g>
					</g>
				</g>
				<g>
					<path style="fill:#FFB681;" d="M411.818,138.324c-4.339-9.75-22.516-8.011-24.509-0.699c-4.1,15.04-2.431,21.485,1.522,25.436
						c4.575,4.572,7.823,4.299,7.114,13.072c1.48,4.819,8.555,6.032,11.283,0.912c0.798-11.631,5.497-20.115,5.497-20.115
						S413.607,142.344,411.818,138.324z"/>
					<path style="fill:#5B3D31;" d="M409.741,140.239c-3.436,4.187-14.988,4.396-23.971,1.844c0,0-1.069-3.459,3.486-8.716
						c2.913-3.363,10.618-3.628,17.029-1.899c6.411,1.729,9.012,4.787,8.847,9.473c-0.165,4.686-0.162,10.555-0.162,10.555
						l-2.682,1.722C408.539,150.256,409.741,140.239,409.741,140.239z"/>
					<g>
						<g>
							<path style="fill:#1B1B28;" d="M399.708,151.835c-0.051,0.635-0.607,1.107-1.242,1.056c-0.635-0.051-1.107-0.607-1.056-1.242
								c0.051-0.634,0.607-1.107,1.242-1.056S399.76,151.201,399.708,151.835z"/>
							<path style="fill:#FFFFFF;" d="M398.585,151.428c-0.019,0.232-0.222,0.405-0.455,0.387c-0.232-0.019-0.406-0.222-0.387-0.455
								c0.019-0.232,0.222-0.406,0.455-0.387C398.43,150.992,398.604,151.196,398.585,151.428z"/>
						</g>
						<g>
							<path style="fill:#1B1B28;" d="M390.822,151.117c-0.051,0.634-0.607,1.107-1.242,1.056c-0.634-0.051-1.107-0.607-1.056-1.242
								c0.051-0.634,0.607-1.107,1.242-1.056C390.4,149.927,390.873,150.483,390.822,151.117z"/>
							<path style="fill:#FFFFFF;" d="M389.698,150.71c-0.019,0.232-0.222,0.406-0.455,0.387c-0.232-0.019-0.406-0.222-0.387-0.455
								c0.019-0.232,0.222-0.406,0.455-0.387C389.544,150.274,389.717,150.478,389.698,150.71z"/>
						</g>
						<path style="fill:#5B3D31;" d="M391.954,146.681c-1.362-1.121-3.241-1.215-4.697-0.149c-0.272,0.2-0.353,0.639-0.182,0.941
							c0.174,0.309,0.545,0.388,0.819,0.188c0.597-0.438,1.326-0.598,2.016-0.491c0.349,0.054,0.688,0.176,0.998,0.363
							c0.274,0.165,0.532,0.435,0.868,0.276c0.08-0.038,0.151-0.097,0.209-0.171C392.185,147.389,392.213,146.894,391.954,146.681z"
							/>
						<path style="fill:#5B3D31;" d="M396.433,147.043c1.736-0.871,3.881-0.639,5.345,0.663c0.274,0.244,0.289,0.691,0.044,0.96
							c-0.25,0.275-0.685,0.289-0.96,0.044c-0.601-0.534-1.4-0.809-2.198-0.82c-0.404-0.006-0.809,0.055-1.193,0.181
							c-0.339,0.111-0.681,0.329-1.031,0.116c-0.084-0.051-0.154-0.122-0.208-0.204C396.05,147.701,396.103,147.208,396.433,147.043
							z"/>
						<path style="fill:#D37B40;" d="M391.998,154.348c-0.065-0.005-0.121-0.053-0.135-0.12c-0.205-1.003,0.155-1.309,0.493-1.389
							c0.343-0.08,0.736,0.039,1.169,0.356c0.067,0.049,0.081,0.143,0.032,0.211c-0.05,0.066-0.145,0.08-0.211,0.032
							c-0.357-0.263-0.667-0.366-0.921-0.306c-0.303,0.071-0.393,0.42-0.267,1.035c0.017,0.081-0.036,0.161-0.118,0.178
							C392.026,154.349,392.011,154.349,391.998,154.348z"/>
						<g>
							<path style="fill:#8E4136;" d="M397.382,155.899c-0.484-0.694-1.671,0.092-3.113,0.255c-1.442,0.164-2.775-0.335-3.091,0.45
								c-0.399,0.992,1.109,3.175,3.472,2.906C397.014,159.242,397.994,156.776,397.382,155.899z"/>
							<path style="fill:#C16B5B;" d="M397.356,157.467c-0.458-0.006-0.944,0.012-1.453,0.07c-1.678,0.191-3.076,0.699-3.691,1.27
								c0.613,0.485,1.443,0.816,2.438,0.703C396.071,159.349,396.98,158.394,397.356,157.467z"/>
							<path style="fill:#FFFFFF;" d="M394.362,156.965c1.288-0.146,2.346-0.576,2.667-1.316c-0.596-0.164-1.594,0.374-2.759,0.506
								c-1.165,0.132-2.259-0.168-2.802,0.126C391.946,156.93,393.074,157.111,394.362,156.965z"/>
						</g>
					</g>
					<g>
						<path style="fill:#FFB681;" d="M416.628,157.583c-1.684,1.708-4.148,2.008-5.503,0.671c-1.355-1.337-1.089-3.805,0.595-5.512
							c1.684-1.708,4.148-2.008,5.504-0.671C418.579,153.407,418.313,155.875,416.628,157.583z"/>
						<path style="fill:#D37B40;" d="M416.148,152.886c-0.625-0.398-1.497-0.453-2.332-0.143c-0.416,0.154-0.725,0.357-0.946,0.62
							c-0.293,0.349-0.403,0.809-0.288,1.199c0.102,0.35,0.355,0.592,0.578,0.806c0.162,0.155,0.314,0.301,0.394,0.467
							c0.122,0.255,0.059,0.594-0.148,0.788c-0.206,0.193-0.548,0.234-0.795,0.094c-0.146-0.082-0.329-0.03-0.411,0.114
							c-0.081,0.144-0.031,0.329,0.114,0.41c0.159,0.09,0.334,0.14,0.514,0.155c0.356,0.029,0.725-0.087,0.99-0.335
							c0.397-0.372,0.514-0.998,0.279-1.488c-0.127-0.265-0.336-0.465-0.521-0.642c-0.185-0.177-0.36-0.345-0.417-0.541
							c-0.058-0.197,0.01-0.448,0.172-0.642c0.065-0.078,0.152-0.146,0.246-0.212c0.298,0.021,0.664,0.143,0.836,0.365
							c0.193,0.25,0.267,0.594,0.19,0.9c-0.04,0.161,0.058,0.324,0.22,0.365c0.016,0.004,0.032,0.007,0.049,0.008
							c0.144,0.012,0.28-0.082,0.316-0.228c0.122-0.488,0.01-1.017-0.299-1.415c-0.115-0.148-0.265-0.254-0.425-0.343
							c0.508-0.094,0.995-0.028,1.359,0.204c0.45,0.286,0.752,0.955,0.469,1.458c-0.081,0.145-0.03,0.329,0.114,0.411
							c0.145,0.081,0.328,0.031,0.41-0.114C417.231,154.416,416.924,153.38,416.148,152.886z"/>
					</g>
				</g>
			</g>
		</g>
		<g>
			<path d="M337.455,160.202c-2.941-9.049-4.167-18.616-3.597-28.114c0.165-2.746,0.482-5.48,0.946-8.191
				c0.107-0.625-0.849-0.893-0.957-0.264c-1.634,9.549-1.463,19.366,0.52,28.85c0.564,2.698,1.279,5.362,2.13,7.984
				C336.695,161.07,337.654,160.812,337.455,160.202z"/>
			<path d="M328.159,152.346c-1.21-5.97-1.439-12.103-0.702-18.149c0.077-0.632-0.916-0.627-0.992,0
				c-0.748,6.136-0.491,12.355,0.737,18.413C327.33,153.236,328.286,152.971,328.159,152.346z"/>
			<path d="M477.483,159.663c-2.318,7.598-5.107,15.046-8.361,22.293c-0.259,0.578,0.595,1.083,0.857,0.501
				c3.289-7.325,6.118-14.85,8.461-22.53C478.626,159.315,477.669,159.053,477.483,159.663z"/>
			<path d="M480.625,174.141c-2.445,4.342-4.889,8.685-7.334,13.027c-0.314,0.557,0.543,1.058,0.857,0.501
				c2.445-4.342,4.889-8.685,7.334-13.027C481.796,174.085,480.939,173.584,480.625,174.141z"/>
		</g>
	</g>
</g>
</svg>
