<?xml version="1.0" encoding="utf-8"?>
<!-- Generator: Adobe Illustrator 27.5.0, SVG Export Plug-In . SVG Version: 6.00 Build 0)  -->
<svg version="1.1" xmlns="http://www.w3.org/2000/svg" xmlns:xlink="http://www.w3.org/1999/xlink" x="0px" y="0px"
	 viewBox="0 0 750 500" style="enable-background:new 0 0 750 500;" xml:space="preserve">
<g id="BACKGROUND">
	<rect style="fill:#FFFFFF;" width="750" height="500"/>
</g>
<g id="OBJECTS">
	<g>
		<g>
			<path style="fill:#EBF0F7;" d="M615.476,247.573c-1.12-30.714-20.086-69.679-51.315-79.858
				c-23.791-7.754-42.35,10.672-65.604,9.542c-18.931-0.92-34.865-14.141-46.232-28.289c-10.264-12.775-18.133-27.298-27.885-40.468
				c-33.544-45.306-90.242-72.466-146.569-70.21c-56.327,2.256-110.672,33.863-140.485,81.706s-34.242,110.555-11.45,162.114
				c20.676,46.77,61.466,82.518,107.108,105.579c85.032,42.964,189.992,44.129,275.957,3.064
				C563.459,364.74,617.866,313.108,615.476,247.573z"/>
			<path style="fill:#EBF0F7;" d="M480.686,157.25c19.005,7.479,42.252,6.104,59.975-4.283c14.44-8.463,22.861-32.221,8.173-44.818
				c-10.042-8.613-25.43-6.371-37.442-11.914c-9.076-4.188-15.806-12.653-25.207-16.048c-8.209-2.965-17.888-1.445-24.794,3.892
				c-20.879,16.137-12.8,45.853,3.979,62.736C469.963,151.435,475.206,155.094,480.686,157.25z"/>
		</g>
	</g>
	<g>
		<g>
			<path style="fill:#D3DEED;" d="M297.568,335.095H144.606V96.932h152.962V335.095z M146.369,333.332h149.437V98.695H146.369
				V333.332z"/>
			<rect x="145.488" y="110.432" style="fill:#D3DEED;" width="151.2" height="1.763"/>
			<rect x="220.206" y="111.313" style="fill:#D3DEED;" width="1.762" height="222.9"/>
			<rect x="145.488" y="188.132" style="fill:#D3DEED;" width="151.2" height="1.763"/>
			<rect x="145.488" y="271.832" style="fill:#D3DEED;" width="151.2" height="1.763"/>
		</g>
		<g>
			<path style="fill:#D3DEED;" d="M460.173,335.095H307.211V96.932h152.962V335.095z M308.974,333.332h149.437V98.695H308.974
				V333.332z"/>
			<rect x="308.092" y="110.432" style="fill:#D3DEED;" width="151.2" height="1.763"/>
			<rect x="382.811" y="111.313" style="fill:#D3DEED;" width="1.762" height="222.9"/>
			<rect x="308.092" y="188.132" style="fill:#D3DEED;" width="151.2" height="1.763"/>
			<rect x="308.092" y="271.832" style="fill:#D3DEED;" width="151.2" height="1.763"/>
		</g>
		<g>
			<path style="fill:#D3DEED;" d="M619.829,335.095H466.867V96.932h152.962V335.095z M468.63,333.332h149.437V98.695H468.63V333.332
				z"/>
			<rect x="467.748" y="110.432" style="fill:#D3DEED;" width="151.2" height="1.763"/>
			<rect x="542.467" y="111.313" style="fill:#D3DEED;" width="1.762" height="222.9"/>
			<rect x="467.748" y="188.132" style="fill:#D3DEED;" width="151.2" height="1.763"/>
			<rect x="467.748" y="271.832" style="fill:#D3DEED;" width="151.2" height="1.763"/>
		</g>
	</g>
	<g>
		<g>
			<polygon style="fill:#E1695B;" points="309.869,182.369 322.091,182.369 301.564,439.043 289.342,439.043 			"/>
			<polygon style="fill:#E1695B;" points="385.777,182.369 397.999,182.369 377.473,439.043 365.25,439.043 			"/>
			<polygon style="fill:#DB9B7F;" points="406.344,309.507 309.877,309.507 301.436,165.903 397.902,165.903 			"/>
			<polygon style="fill:#F3DEC1;" points="397.169,302.382 318.214,302.382 310.61,173.029 389.565,173.029 			"/>
			<g>
				<path style="fill:#6B8383;" d="M346.077,187.424c-5.463-1.015-11.431-0.503-16.044,2.594c-4.614,3.097-7.44,9.145-5.737,14.434
					c1.346,4.178,5.087,7.124,8.948,9.212c3.861,2.088,8.066,3.61,11.55,6.279c3.484,2.669,6.224,6.92,5.516,11.251
					c-0.786,4.808-5.3,7.918-9.066,11.008c-5.962,4.891-11.009,11.332-12.583,18.881c-1.574,7.549,0.971,16.237,7.408,20.485
					c5.744,3.791,13.352,3.475,19.917,1.408c6.37-2.006,12.472-5.742,15.841-11.508c3.369-5.766,3.363-13.761-1.17-18.665
					c-2.603-2.815-6.643-4.817-7.307-8.594c-0.656-3.732,2.423-7.019,5.441-9.309c5.87-4.453,13.071-8.573,14.823-15.729
					c1.365-5.573-1.205-11.52-5.182-15.656C370.807,195.583,356.785,189.412,346.077,187.424z"/>
			</g>
			<path style="fill:#6F5E68;" d="M335.795,224.57c-5.544,3.932-9.828,9.911-10.801,16.638c-0.972,6.727,1.759,14.092,7.436,17.83
				c5.677,3.738,14.139,3.03,18.514-2.171c3.28-3.898,4.588-10.046,9.441-11.595c2.892-0.923,5.992,0.236,9.025,0.37
				c12.206,0.538,16.821-13.355,11.188-22.601c-4.749-7.795-16.886-6.308-24.546-5.463
				C348.904,218.367,341.721,220.366,335.795,224.57z"/>
			<polygon style="fill:#DB9B7F;" points="337.439,439.408 322.987,439.408 315.351,309.507 329.803,309.507 			"/>
			<polygon style="fill:#DB9B7F;" points="408.506,439.408 395.129,439.408 387.493,309.507 400.87,309.507 			"/>
		</g>
		<g>
			<g>
				<path style="fill:#7A5641;" d="M487.981,297.955c0,0.114-0.01,0.228-0.01,0.342c-0.197,3.922-0.414,7.928-0.642,11.974
					c-0.01,0.114-0.021,0.238-0.021,0.352c-0.207,3.477-0.414,6.986-0.631,10.505c-0.01,0.207-0.021,0.414-0.031,0.621
					c-0.238,3.674-0.466,7.348-0.714,11.022c-0.01,0.114-0.01,0.228-0.021,0.341c-0.797,12.057-1.656,24.021-2.494,35.074
					c0.01,0.062,0,0.124-0.01,0.186c-0.476,6.303-0.942,12.305-1.387,17.863c0,0.062-0.01,0.124-0.01,0.176
					c-0.735,9.201-1.397,17.18-1.915,23.265c0,0.052-0.01,0.114-0.01,0.166c-0.021,0.259-0.042,0.507-0.062,0.766
					c-0.072,0.838-0.145,1.646-0.207,2.411c-0.507,5.93-0.818,9.366-0.818,9.366s-0.052,0.021-0.155,0.062
					c-0.983,0.404-6.717,2.484-14.23-0.145c-0.062-0.01-0.135-0.041-0.197-0.062c0,0-0.321-4.43-0.869-11.902
					c-2.215-29.982-8.114-109.01-11.736-148.555c-0.31-3.426-0.611-6.551-0.89-9.325c-0.135-1.428-0.269-2.763-0.404-3.995h38.593
					c0.01,0.424,0.031,0.859,0.041,1.304c0.01,0.238,0.01,0.476,0.021,0.725C489.461,262.105,488.934,279.109,487.981,297.955z"/>
				<g>
					<path style="fill:#36303A;" d="M451.932,412.367l0.113,0.302c0.189,0.438,0.359,0.863,0.523,1.337
						c0.113,0.402,0.262,0.829,0.408,1.269l-42.644,23.766c0,0-0.312-0.402-0.699-1.095c-0.181-0.365-0.386-0.793-0.579-1.317
						c-0.03-0.094-0.078-0.2-0.096-0.312c-0.873-2.66-0.97-6.948,4.26-11.259c0.241-0.223,0.518-0.422,0.816-0.643l0.025-0.014
						c0.419-0.322,0.852-0.619,1.318-0.934c0.156-0.098,0.307-0.204,0.463-0.302c11.156-7.414,14.139-14.206,14.139-14.206
						s7.516-2.416,13.102-7.302c0,0,1.431,0.82,3.287,2.599c0.304,0.307,0.631,0.635,0.963,0.992
						c0.068,0.062,0.132,0.137,0.209,0.216c0.132,0.137,0.269,0.304,0.407,0.471c0.037,0.046,0.091,0.104,0.119,0.155
						c0.024,0.042,0.058,0.045,0.077,0.079c0.659,0.785,1.323,1.678,1.953,2.689C450.752,409.911,451.389,411.074,451.932,412.367z"
						/>
					<path style="fill:#FFFFFF;" d="M425.941,411.664c0.071-0.215,0.206-0.42,0.414-0.524c0.22-0.11,0.422-0.117,0.663-0.077
						c0.4,0.065,0.799,0.123,1.199,0.191c0.572,0.097,1.15,0.135,1.727,0.194c0.23,0.024,0.437,0.091,0.604,0.26
						c0.152,0.155,0.265,0.41,0.25,0.63c-0.028,0.44-0.404,0.904-0.89,0.855c-1.127-0.115-2.25-0.268-3.367-0.451
						c-0.206-0.034-0.427-0.241-0.523-0.415C425.914,412.14,425.873,411.87,425.941,411.664z"/>
					<path style="fill:#FFFFFF;" d="M423.679,414.703c0.139-0.421,0.62-0.769,1.078-0.601c0.92,0.338,1.871,0.581,2.839,0.732
						c0.154,0.021,0.307,0.042,0.461,0.059c0.23,0.025,0.436,0.09,0.604,0.26c0.152,0.154,0.265,0.41,0.251,0.63
						c-0.028,0.438-0.405,0.907-0.89,0.854c-1.278-0.137-2.535-0.413-3.742-0.857c-0.22-0.081-0.406-0.203-0.524-0.414
						C423.652,415.18,423.611,414.91,423.679,414.703z"/>
					<path style="fill:#FFFFFF;" d="M421.453,417.235c0.071-0.214,0.206-0.42,0.414-0.524c0.192-0.096,0.456-0.165,0.663-0.077
						l2.968,1.259c0.223,0.095,0.4,0.194,0.524,0.414c0.104,0.187,0.146,0.457,0.077,0.664c-0.071,0.214-0.206,0.419-0.414,0.523
						c-0.192,0.096-0.456,0.165-0.664,0.077l-2.967-1.259c-0.223-0.095-0.4-0.193-0.524-0.415
						C421.426,417.711,421.385,417.442,421.453,417.235z"/>
					<path style="fill:#FFFFFF;" d="M418.776,419.669c0.352-0.541,1.186-0.64,1.598,0.133c0.503,0.29,0.871,0.503,1.374,0.793
						c0.703-0.084,1.134,0.762,0.789,1.294c-0.351,0.54-1.185,0.641-1.597-0.131c-0.503-0.291-0.873-0.504-1.376-0.795
						C418.861,421.046,418.43,420.201,418.776,419.669z"/>
					<path style="fill:#F3DEC1;" d="M452.054,412.672c0.175,0.43,0.354,0.868,0.506,1.332c0.132,0.41,0.281,0.833,0.411,1.277
						l-42.634,23.761c0,0-0.316-0.394-0.705-1.092c-0.185-0.37-0.393-0.803-0.572-1.316L452.054,412.672z"/>
				</g>
				<g>
					<path style="fill:#36303A;" d="M461.586,435.874l0.045,0.32c0.044,0.475,0.097,0.93,0.18,1.424
						c0.093,0.407,0.166,0.853,0.249,1.309l48.817,0.479c0,0,0.082-0.502,0.09-1.296c-0.015-0.407-0.04-0.881-0.121-1.433
						c-0.018-0.097-0.027-0.213-0.065-0.32c-0.505-2.753-2.471-6.566-9.126-7.851c-0.318-0.081-0.657-0.123-1.024-0.174
						l-0.029-0.001c-0.522-0.082-1.044-0.136-1.605-0.19c-0.184-0.012-0.367-0.033-0.551-0.044
						c-13.343-1.176-19.211-5.714-19.211-5.714s-7.756,1.472-14.998-0.147c0,0-0.865,1.404-1.644,3.855
						c-0.12,0.415-0.25,0.859-0.371,1.332c-0.03,0.087-0.05,0.183-0.08,0.29c-0.05,0.184-0.091,0.396-0.132,0.608
						c-0.01,0.058-0.03,0.135-0.031,0.193c-0.001,0.048-0.03,0.067-0.03,0.106c-0.203,1.004-0.359,2.106-0.429,3.296
						C461.448,433.153,461.445,434.479,461.586,435.874z"/>
					<path style="fill:#FFFFFF;" d="M484.076,422.826c-0.165-0.155-0.382-0.27-0.614-0.262c-0.246,0.009-0.427,0.099-0.619,0.249
						c-0.135,0.105-0.271,0.209-0.407,0.313c-0.649,0.49-1.308,0.965-1.978,1.425c-0.191,0.131-0.341,0.289-0.406,0.517
						c-0.06,0.209-0.036,0.487,0.081,0.673c0.235,0.373,0.788,0.601,1.19,0.325c0.935-0.64,1.847-1.311,2.741-2.007
						c0.165-0.128,0.26-0.416,0.262-0.614C484.328,423.232,484.235,422.975,484.076,422.826z"/>
					<path style="fill:#FFFFFF;" d="M487.516,424.414c-0.324-0.303-0.913-0.379-1.234-0.012c-0.646,0.737-1.365,1.405-2.144,2
						c-0.125,0.092-0.25,0.184-0.377,0.272c-0.191,0.132-0.34,0.288-0.406,0.517c-0.06,0.208-0.036,0.487,0.081,0.673
						c0.234,0.371,0.789,0.603,1.19,0.325c1.056-0.732,2.029-1.575,2.877-2.542c0.155-0.176,0.26-0.373,0.262-0.614
						C487.768,424.82,487.675,424.563,487.516,424.414z"/>
					<path style="fill:#FFFFFF;" d="M490.682,425.573c-0.165-0.154-0.382-0.27-0.614-0.262c-0.215,0.008-0.48,0.073-0.62,0.249
						l-2.004,2.525c-0.15,0.19-0.259,0.362-0.262,0.614c-0.002,0.214,0.091,0.47,0.25,0.62c0.165,0.154,0.382,0.27,0.614,0.262
						c0.214-0.008,0.479-0.073,0.62-0.25l2.004-2.525c0.151-0.19,0.259-0.361,0.261-0.615
						C490.934,425.978,490.841,425.722,490.682,425.573z"/>
					<path style="fill:#FFFFFF;" d="M494.197,426.43c-0.418-0.226-0.952-0.117-1.2,0.307c-0.439,0.736-0.874,1.465-1.313,2.201
						c-0.271,0.391-0.157,1.008,0.273,1.241c0.418,0.226,0.952,0.117,1.201-0.307c0.439-0.736,0.874-1.465,1.313-2.201
						C494.741,427.279,494.627,426.663,494.197,426.43z"/>
					<path style="fill:#F3DEC1;" d="M461.625,436.2c0.052,0.461,0.104,0.931,0.193,1.411c0.08,0.424,0.151,0.866,0.25,1.318
						l48.805,0.479c0,0,0.09-0.497,0.098-1.296c-0.015-0.413-0.038-0.893-0.127-1.43L461.625,436.2z"/>
				</g>
				<path style="fill:#7A5641;" d="M418.632,245.852c-8.223,22.713-16.236,48.108-20.922,63.431
					c-4.095,13.389-2.985,18.168,1.003,29.075c3.485,9.533,31.269,70.599,31.269,70.599s6.361-1.157,13.102-7.302l-16.215-74.251
					l35.449-81.553H418.632z"/>
				<path style="fill:#36303A;" d="M489.248,318.272c0,0-3.32,0.59-9.02,0.86c-0.12,0.01-0.24,0.01-0.37,0.02
					c-7.52,0.33-19.01,0.11-32.43-2.61l3.09-38.92l-13.11,38.71c0,0-2.5-0.19-6.48-0.75c-0.12-0.02-0.24-0.04-0.36-0.06
					c-8.19-1.17-22.31-3.88-34.08-9.61c0,0,11.75-37.39,22.14-60.06l70.48,2.61C489.408,263.922,489.248,318.272,489.248,318.272z"
					/>
				<path style="fill:#DB9B7F;" d="M475.038,253.191c1.585,3.061,4.737,5.081,8.18,5.241c1.038,0.048,2.082-0.074,3.082-0.354
					c0.22-0.061,0.126-0.404-0.094-0.342c-3.323,0.929-6.947-0.059-9.324-2.56c-0.613-0.645-1.129-1.374-1.538-2.164
					C475.24,252.809,474.933,252.989,475.038,253.191L475.038,253.191z"/>
				<path style="fill:#DB9B7F;" d="M482.918,296.372c-0.59,7.62-1.48,15.21-2.69,22.76c-0.12,0.01-0.24,0.01-0.37,0.02
					c0.67-4.11,1.24-8.23,1.71-12.36c0.92-8.02,1.49-16.08,1.7-24.14c0.21-8.07,0.07-16.15-0.43-24.2c-0.01-0.23,0.34-0.23,0.36,0
					c0.27,4.53,0.44,9.07,0.5,13.61C483.798,280.172,483.538,288.292,482.918,296.372z"/>
				<path style="fill:#DB9B7F;" d="M450.808,268.122c-0.14,0.41-0.29,0.83-0.44,1.25c-1.16,3.29-2.37,6.57-3.62,9.84
					c-1.25,3.28-2.54,6.55-3.87,9.79c-1.32,3.24-2.69,6.46-4.09,9.66c-1.4,3.2-2.84,6.38-4.32,9.55c-1.16,2.47-2.33,4.92-3.54,7.37
					c-0.12-0.02-0.24-0.04-0.36-0.06c1.41-2.85,2.78-5.72,4.11-8.61c1.47-3.17,2.9-6.36,4.3-9.56c1.4-3.22,2.76-6.46,4.08-9.71
					c1.31-3.24,2.59-6.5,3.82-9.77c1.24-3.27,2.43-6.55,3.59-9.85C450.548,267.812,450.888,267.902,450.808,268.122z"/>
			</g>
			<g>
				<path style="fill:#7A5641;" d="M437.762,143.937c-13.283,3.628-28.437,45.327-28.437,45.327l-41.185-12.203l-1.29,9.666
					c0,0,27.188,13.117,38.017,17.34c11.957,4.663,19.449,1.455,23.23-7.732C432.046,186.739,437.762,143.937,437.762,143.937z"/>
				<path style="fill:#7B95BA;" d="M437.762,143.937c-14.041,3.468-27.424,36.309-27.424,36.309
					c10.14,7.034,27.424,11.876,27.424,11.876V143.937z"/>
				<g>
					<path style="fill:#36303A;" d="M356.06,157.798c-0.862-1.508-2.37-2.623-4.094-2.831c0.354,1.063,0.207,2.224-0.029,3.319
						c-0.236,1.095-0.557,2.188-0.54,3.308s0.444,2.308,1.389,2.91l3.733-1.316C357.215,161.596,356.922,159.306,356.06,157.798z"/>
					<path style="fill:#E1695B;" d="M367.923,197.445L367.923,197.445c-0.874,0.328-1.735,0.261-1.93-0.163l-13.612-32.754
						l4.658-1.747l12.23,33.272C369.402,196.501,368.797,197.117,367.923,197.445z"/>
				</g>
				<g>
					<path style="fill:#7A5641;" d="M357.115,179.308c1.025-1.052,4.365-0.912,4.365-0.912c-0.767-3.98,4.448-3.78,7.654-0.829
						l2.311,8.516c-2.289,0.808-6.571,5.677-10.757,3.415C356.501,187.237,355.727,180.734,357.115,179.308z"/>
					<path style="fill:#5C3B28;" d="M362.588,188.697c0.121-0.369,0.269-0.729,0.428-1.083c-0.422,0.173-0.845,0.347-1.267,0.52
						c-0.205,0.084-0.327-0.238-0.121-0.323c0.697-0.286,1.393-0.571,2.089-0.858c0.593-0.245,1.301-0.55,1.501-1.223
						c0.193-0.651-0.366-1.195-0.963-1.328c-0.624-0.14-1.295,0.035-1.891,0.219c-0.76,0.235-1.48,0.576-2.146,1.011
						c-0.185,0.121-0.387-0.159-0.2-0.281c0.678-0.443,1.413-0.798,2.186-1.041c0.596-0.187,1.26-0.347,1.894-0.268
						c0.009-0.034,0.021-0.068,0.059-0.094c0.422-0.291,0.801-0.693,0.872-1.22c0.061-0.449-0.166-0.907-0.616-1.04
						c-0.007-0.002-0.011-0.008-0.018-0.011c-0.208,0.132-0.443,0.209-0.701,0.163c-0.276-0.049-0.524-0.203-0.743-0.399
						c-0.029,0.036-0.072,0.062-0.14,0.057c-1.124-0.089-2.176,0.232-3.171,0.763c-0.214,0.114-0.347-0.224-0.138-0.315
						c1.01-0.437,2.091-0.698,3.189-0.778c-0.123-0.145-0.237-0.294-0.329-0.44c-0.363-0.571-0.577-1.216-0.785-1.855
						c-0.068-0.21,0.254-0.333,0.323-0.121c0.167,0.513,0.333,1.033,0.588,1.51c0.236,0.442,0.572,0.922,1.03,1.155
						c0.501,0.254,0.934-0.132,1.182-0.551c0.247-0.417,0.325-0.903,0.241-1.378c-0.024-0.137,0.126-0.24,0.247-0.172
						c0.687,0.382,1.625,0.502,2.149-0.211c0.132-0.179,0.399,0.039,0.268,0.218c-0.549,0.747-1.512,0.767-2.296,0.433
						c0.02,0.458-0.089,0.916-0.331,1.311c-0.078,0.127-0.177,0.25-0.285,0.364c0.48,0.221,0.73,0.767,0.685,1.286
						c-0.051,0.583-0.43,1.054-0.88,1.401c0.552,0.182,1.054,0.636,1.103,1.241c0.06,0.732-0.511,1.302-1.108,1.62
						c-0.359,0.191-0.741,0.339-1.12,0.49c0.025,0.046,0.036,0.098,0.013,0.147c-0.185,0.397-0.346,0.804-0.482,1.22
						c-0.029,0.089-0.148,0.124-0.227,0.089C362.585,188.884,362.559,188.786,362.588,188.697z"/>
				</g>
				<g>
					<g>
						<path style="fill:#7B95BA;" d="M489.109,248.464c-10.516,4.609-65.302,5.712-71.669-2.189l20.322-102.338l13.798-3.9
							l13.495,0.507l14.017,4.196C489.251,214.685,489.109,248.464,489.109,248.464z"/>
					</g>
				</g>
				<path style="fill:#F3DEC1;" d="M439.174,159.007l-12.911,84.544l-10.683,28.483c22.564,14.982,63.362,8.606,63.362,8.606
					l3.959-34.043l-8.526-87.088L439.174,159.007z"/>
				<g>
					<path style="fill:#DB9B7F;" d="M470.274,236.802c-2.289,2.326-5.108,4.118-8.188,5.199c-0.866,0.304-1.751,0.551-2.649,0.742
						c-0.223,0.048-0.129,0.39,0.094,0.342c3.23-0.688,6.282-2.122,8.886-4.152c0.743-0.58,1.447-1.208,2.107-1.88
						C470.686,236.89,470.435,236.638,470.274,236.802L470.274,236.802z"/>
					<path style="fill:#DB9B7F;" d="M470.594,238.949c-2.12,2.445-4.643,4.524-7.435,6.159c-2.791,1.635-5.838,2.825-9.001,3.505
						c-1.793,0.385-3.619,0.602-5.453,0.644c-0.228,0.005-0.229,0.36,0,0.355c3.276-0.076,6.533-0.706,9.609-1.832
						c3.07-1.124,5.956-2.731,8.523-4.757c1.452-1.146,2.795-2.426,4.007-3.824C470.994,239.028,470.744,238.776,470.594,238.949
						L470.594,238.949z"/>
				</g>
				<path style="fill:#6B8383;" d="M451.343,172.254c-1.068,0.412-2.266,1.251-2.084,2.381c0.163,1.013,1.322,1.49,2.316,1.743
					s2.16,0.608,2.477,1.584c0.368,1.135-0.694,2.296-0.549,3.48c0.118,0.963,1.037,1.669,1.987,1.86
					c0.951,0.191,1.931-0.019,2.878-0.229c0.742-0.165,1.497-0.334,2.158-0.709c0.661-0.375,1.226-0.995,1.347-1.745
					c0.177-1.1-0.613-2.186-0.438-3.286c0.226-1.422,1.845-2.277,1.526-3.842c-0.268-1.316-1.932-2.425-3.165-2.752
					c-1.073-0.284-2.14,0.038-3.191,0.265C454.83,171.389,453.049,171.595,451.343,172.254z"/>
				<path style="fill:#6F5E68;" d="M441.97,198.138c-0.308,1.516-0.107,3.401,1.25,4.144c1.944,1.064,4.496-1.079,6.485-0.105
					c0.945,0.463,1.452,1.501,2.254,2.182c1.398,1.186,3.625,1.08,5.096-0.014s2.213-2.988,2.202-4.822s-0.698-3.608-1.639-5.183
					c-1.044-1.749-2.48-3.352-4.366-4.122C448.212,188.16,442.899,193.568,441.97,198.138z"/>
				<polygon style="fill:#F3DEC1;" points="441.072,159.027 443.399,142.344 449.723,140.556 448.454,159.129 				"/>
				<polygon style="fill:#F3DEC1;" points="465.968,159.394 472.973,159.49 472.284,142.707 466.639,141.018 				"/>
				<g>
					<path style="fill:#7A5641;" d="M479.072,144.739c12.659,5.269,24.32,47.548,26.56,56.151
						c2.862,10.993-5.588,19.641-16.002,14.342c-10.13-5.154-40.286-26.492-40.286-26.492l4.935-8.941l31.211,15.868l-8.352-21.365
						L479.072,144.739z"/>
					<path style="fill:#7B95BA;" d="M479.072,144.739c12.72,4.051,24.535,42.662,24.535,42.662
						c-9.866,5.359-22.094,6.244-22.094,6.244l-4.603-19.906L479.072,144.739z"/>
					<path style="fill:#36303A;" d="M476.01,173.22c1.133,4.795,2.266,9.59,3.399,14.385c0.321,1.358,0.642,2.715,0.963,4.073
						c0.052,0.222,0.395,0.128,0.342-0.094c-1.133-4.795-2.266-9.59-3.4-14.385c-0.321-1.358-0.642-2.715-0.962-4.073
						C476.3,172.904,475.957,172.998,476.01,173.22L476.01,173.22z"/>
					<path style="fill:#36303A;" d="M475.003,175.64c0.702,0.821,1.404,1.642,2.105,2.463c0.149,0.174,0.399-0.078,0.251-0.251
						c-0.702-0.821-1.404-1.642-2.105-2.463C475.105,175.215,474.855,175.467,475.003,175.64L475.003,175.64z"/>
					<path style="fill:#7A5641;" d="M454.28,179.8c-3.12-1.265-4.13-4.116-7.588-4.308c-2.952-0.163-7.449,4.431-7.449,4.431
						l-7.955,1.789c2.266,4.738,5.84,6.142,8.33,6.046c2.489-0.096,7.485,0.115,9.727,0.983L454.28,179.8z"/>
					<path style="fill:#F3DEC1;" d="M413.081,179.888c-0.069-0.23,0.06-0.485,0.254-0.628c0.194-0.143,0.438-0.196,0.676-0.231
						c0.238-0.035,0.482-0.057,0.704-0.15c0.379-0.159,0.643-0.501,0.918-0.807c0.275-0.306,0.615-0.605,1.026-0.623
						c0.568-0.026,1.026,0.486,1.587,0.575c0.341,0.054,0.684-0.053,1.029-0.074c0.554-0.034,1.119,0.169,1.526,0.548
						c0.406,0.379,0.649,0.928,0.655,1.483C418.595,179.783,415.947,179.812,413.081,179.888z"/>
					<path style="fill:#6F5E68;" d="M421.761,180.024h9.257c0.036-0.276-0.299-0.498-0.554-0.609
						c-0.255-0.111-0.542-0.113-0.82-0.129s-0.57-0.055-0.791-0.224c-0.207-0.157-0.323-0.405-0.503-0.594
						c-0.343-0.362-0.888-0.469-1.382-0.4c-0.493,0.068-0.951,0.287-1.404,0.497c-0.452,0.209-0.919,0.415-1.416,0.453
						c-0.316,0.024-0.633-0.02-0.949-0.031c-0.317-0.01-0.646,0.017-0.923,0.171C422,179.311,421.721,179.71,421.761,180.024z"/>
					<path style="fill:#DB9B7F;" d="M436.817,179.001c-0.267-0.316-0.614-0.665-1.022-0.596c-0.352,0.06-0.585,0.414-0.925,0.521
						c-0.437,0.137-0.891-0.166-1.349-0.166c-0.353,0-0.678,0.181-0.985,0.357c-0.649,0.372-1.298,0.743-1.947,1.115l0.543-0.116
						c2.245-0.008,4.386,0.015,6.63,0.007C437.447,179.749,437.132,179.375,436.817,179.001z"/>
					<path style="fill:#E1695B;" d="M449.224,179.861H407.27c-0.511,0-0.926,0.414-0.926,0.926s0.415,0.925,0.926,0.925h41.954
						c0.511,0,0.926-0.414,0.926-0.925S449.735,179.861,449.224,179.861z"/>
				</g>
			</g>
			<g>
				<g>
					<path style="fill:#421F09;" d="M467.825,126.012c5.937-4.235,9.725-11.336,9.937-18.626c0.091-3.134-0.55-6.495-2.755-8.724
						c-0.893-4.732-3.886-9.166-7.89-11.841s-8.795-3.997-13.59-4.448c-3.202-0.302-6.482-0.227-9.564,0.692
						c-3.082,0.919-5.966,2.739-7.758,5.41c-2.407,3.586-2.572,8.422-0.891,12.399c-1.113,3.527-1.266,7.342-0.269,10.903
						c0.997,3.561,3.05,6.819,5.832,9.256C447.72,127.024,458.731,126.184,467.825,126.012z"/>
					<path style="fill:#7A5641;" d="M469.877,120.797c0,0-4.864,10.319-4.887,24.017c-2.804,6.231-11.195,5.365-13.299-0.186
						c0.067-5.208-0.865-7.643-2.534-9.422c-0.139-0.149-0.276-0.28-0.421-0.423c-0.099-0.101-0.197-0.19-0.308-0.285
						c-0.196-0.178-0.423-0.341-0.638-0.525c-0.306-0.235-0.623-0.469-0.954-0.709l-0.006,0c-1.302-0.942-2.826-1.935-4.524-3.419
						c-2.474-2.146-4.333-5.109-5.1-9.764c-0.015-0.055-0.024-0.111-0.034-0.173c-0.016-0.068-0.025-0.136-0.035-0.205
						c-0.018-0.124-0.03-0.236-0.042-0.354c-0.015-0.055-0.018-0.105-0.027-0.155c-0.587-4.557-0.226-10.655,1.475-19.081
						c1.768-8.735,22.954-12.194,28.82-1.087C469.778,103.612,469.877,120.797,469.877,120.797z"/>
					<path style="fill:#421F09;" d="M436.16,109.247c1.723-2.76,2.849-5.891,3.279-9.116c5.206,2.152,11.013,2.766,16.574,1.871
						c-0.257-0.185-0.514-0.37-0.77-0.555c1.78,0.544,3.695,0.644,5.522,0.288c1.444,5.63,4.998,10.701,9.726,14.083
						c1.864-6.421,0.467-13.771-3.87-18.859c-4.338-5.088-11.309-7.796-17.944-6.971c-3.292,0.409-6.583,1.713-8.793,4.188
						c-1.765,1.976-2.727,4.565-3.156,7.18S436.09,106.598,436.16,109.247z"/>
					<g>
						<g>
							<path style="fill:#5C3B28;" d="M447.122,117.599c-0.308-0.151-0.635-0.239-0.978-0.255c-0.306-0.014-0.642,0.032-0.893,0.22
								c-0.27,0.202-0.402,0.511-0.423,0.842c-0.021,0.316,0.087,0.626,0.209,0.912c0.065,0.154,0.216,0.281,0.395,0.222
								c0.148-0.048,0.292-0.23,0.222-0.395c-0.089-0.209-0.186-0.437-0.188-0.668c0-0.119,0.028-0.24,0.098-0.336
								c-0.004,0.006-0.008,0.012-0.011,0.018c0.064-0.103,0.188-0.142,0.3-0.164c0.008-0.002,0.017-0.003,0.03-0.005
								c0.024-0.001,0.048-0.004,0.072-0.006c0.064-0.004,0.128-0.004,0.192-0.001c0.033,0.001,0.065,0.004,0.098,0.007
								c0.017,0.001,0.019,0.001,0.024,0.001c0.005,0.001,0.006,0.001,0.021,0.004c0.2,0.033,0.371,0.112,0.56,0.176
								c0.143,0.048,0.317,0.004,0.39-0.136C447.315,117.892,447.283,117.678,447.122,117.599z"/>
							<path style="fill:#421F09;" d="M439.913,109.663c1.668-0.937,3.708-1.056,5.439-0.195c0.424,0.211,0.665,0.764,0.434,1.204
								c-0.299,0.571-0.852,0.579-1.375,0.353c-0.466-0.202-0.967-0.323-1.474-0.355c0.001-0.028,0.045,0.02,0.017,0.019
								c-0.649-0.025-1.289,0.117-1.876,0.392c-0.035,0.016-0.069,0.034-0.125,0.061c-0.411,0.226-0.969,0.22-1.252-0.216
								C439.457,110.55,439.472,109.91,439.913,109.663z"/>
							<path style="fill:#421F09;" d="M450.825,109.564c1.771-0.723,3.81-0.589,5.421,0.479c0.394,0.262,0.565,0.841,0.282,1.248
								c-0.274,0.395-0.826,0.562-1.249,0.282c-0.162-0.107-0.33-0.2-0.5-0.293c-0.017-0.008-0.014-0.007-0.024-0.012
								c-0.031-0.013-0.062-0.027-0.093-0.04c-0.067-0.027-0.135-0.053-0.203-0.078c-0.182-0.065-0.368-0.119-0.557-0.162
								c-0.047-0.011-0.35-0.097-0.117-0.027c-0.078-0.023-0.171-0.023-0.252-0.031c-0.181-0.018-0.362-0.026-0.543-0.024
								c-0.097,0.001-0.193,0.008-0.29,0.012c-0.011,0-0.014,0-0.021,0.001c-0.014,0.002-0.033,0.005-0.062,0.009
								c-0.179,0.025-0.358,0.06-0.533,0.105c-0.094,0.024-0.186,0.051-0.278,0.081c-0.036,0.012-0.073,0.025-0.109,0.037
								c-0.007,0.003-0.003,0.002-0.012,0.005c-0.003,0.001-0.005,0.001-0.008,0.002c-0.003,0.001-0.005,0.002-0.008,0.003
								c0.004-0.001,0.002-0.001,0.006-0.002c-0.435,0.173-0.989,0.099-1.216-0.369
								C450.264,110.388,450.357,109.755,450.825,109.564z"/>
							<g>
								<path style="fill:#8E4136;" d="M450.241,121.724c-0.391-0.538-1.313,0.098-2.445,0.249
									c-1.132,0.151-2.188-0.221-2.424,0.401c-0.299,0.787,0.922,2.481,2.776,2.233S450.735,122.405,450.241,121.724z"/>
								<path style="fill:#C16B5B;" d="M450.244,122.959c-0.36,0.002-0.742,0.024-1.142,0.077c-1.317,0.176-2.409,0.597-2.884,1.055
									c0.49,0.372,1.148,0.62,1.929,0.516C449.262,124.459,449.963,123.694,450.244,122.959z"/>
								<path style="fill:#E1EFF0;" d="M447.881,122.609c1.011-0.135,1.837-0.489,2.078-1.076c-0.471-0.12-1.248,0.318-2.163,0.44
									c-0.915,0.122-1.78-0.097-2.203,0.142C445.979,122.619,446.87,122.744,447.881,122.609z"/>
							</g>
							<path d="M451.534,115.788c0.094-0.745,0.597-1.612,1.44-1.632c0.349-0.008,0.705,0.142,0.89,0.448
								c0.243,0.404,0.196,0.908,0.167,1.357c-0.01,0.16,0.144,0.296,0.296,0.296c0.169,0,0.286-0.136,0.296-0.296
								c0.038-0.589,0.053-1.234-0.303-1.74c-0.303-0.43-0.823-0.673-1.347-0.659c-0.525,0.014-1.03,0.276-1.378,0.664
								c-0.392,0.437-0.582,0.987-0.654,1.561c-0.02,0.159,0.151,0.296,0.296,0.296
								C451.415,116.084,451.514,115.947,451.534,115.788L451.534,115.788z"/>
							<path d="M440.843,115.84c0.094-0.745,0.597-1.612,1.44-1.632c0.349-0.009,0.705,0.142,0.89,0.448
								c0.243,0.404,0.196,0.908,0.167,1.357c-0.01,0.16,0.144,0.296,0.296,0.296c0.169,0,0.286-0.136,0.296-0.296
								c0.038-0.589,0.053-1.234-0.303-1.739c-0.303-0.43-0.823-0.673-1.347-0.659c-0.525,0.014-1.03,0.276-1.378,0.664
								c-0.392,0.437-0.582,0.987-0.654,1.561c-0.02,0.159,0.151,0.296,0.296,0.296C440.723,116.136,440.822,115.999,440.843,115.84
								L440.843,115.84z"/>
						</g>
					</g>
					<g>
						<path style="fill:#7A5641;" d="M474.503,121.253c-1.843,2.135-4.711,2.68-6.406,1.217c-1.695-1.463-1.574-4.38,0.269-6.515
							c1.843-2.135,4.711-2.68,6.406-1.217C476.467,116.201,476.346,119.118,474.503,121.253z"/>
						<path style="fill:#5C3B28;" d="M473.574,115.779c-0.765-0.419-1.793-0.414-2.748,0.014c-0.476,0.213-0.823,0.475-1.062,0.802
							c-0.316,0.433-0.41,0.98-0.245,1.429c0.147,0.402,0.463,0.667,0.742,0.901c0.202,0.169,0.392,0.328,0.499,0.517
							c0.163,0.29,0.115,0.693-0.113,0.937c-0.227,0.243-0.625,0.317-0.926,0.173c-0.177-0.085-0.388-0.01-0.473,0.166
							c-0.084,0.176-0.01,0.388,0.166,0.473c0.193,0.093,0.404,0.139,0.615,0.142c0.421,0.006,0.844-0.159,1.135-0.47
							c0.437-0.468,0.526-1.211,0.211-1.768c-0.169-0.3-0.431-0.519-0.661-0.712c-0.231-0.194-0.449-0.377-0.532-0.603
							c-0.083-0.226-0.024-0.527,0.152-0.767c0.071-0.097,0.167-0.183,0.272-0.267c0.352,0.002,0.79,0.117,1.01,0.363
							c0.246,0.278,0.359,0.677,0.294,1.042c-0.035,0.193,0.094,0.376,0.286,0.411c0.019,0.004,0.038,0.005,0.058,0.006
							c0.17,0.002,0.322-0.118,0.353-0.292c0.105-0.582-0.068-1.193-0.461-1.637c-0.147-0.164-0.331-0.277-0.525-0.369
							c0.588-0.15,1.166-0.11,1.611,0.133c0.55,0.301,0.957,1.063,0.664,1.674c-0.084,0.177-0.01,0.388,0.166,0.473
							c0.177,0.084,0.387,0.01,0.473-0.166C474.964,117.49,474.522,116.299,473.574,115.779z"/>
					</g>
				</g>
			</g>
		</g>
	</g>
	<g>
		<g>
			<g>
				<path style="fill:#E1695B;" d="M621.141,436.366l0.052,0.319c0,0.003,0,0.003,0,0.006c0.024,0.234,0.052,0.462,0.085,0.693
					c0.03,0.231,0.067,0.468,0.112,0.714c0.021,0.094,0.043,0.188,0.064,0.286c0.003,0.009,0.003,0.018,0.006,0.027
					c0.046,0.21,0.088,0.426,0.131,0.647c0,0.015,0.006,0.03,0.009,0.046l0.055,0.292h0.009l48.549-0.198
					c0.003-0.015,0.012-0.082,0.024-0.191c0.021-0.216,0.052-0.599,0.049-1.097c-0.021-0.389-0.049-0.845-0.131-1.367
					c-0.003-0.018-0.006-0.033-0.009-0.052c0-0.003,0-0.003,0-0.006c-0.021-0.097-0.03-0.213-0.07-0.316
					c-0.541-2.732-2.547-6.497-9.184-7.682c-0.319-0.076-0.656-0.115-1.021-0.161h-0.03c-0.52-0.073-1.039-0.122-1.599-0.167
					c-0.182-0.009-0.365-0.027-0.547-0.036c-1.392-0.103-2.702-0.243-3.932-0.416c-0.635-0.085-1.249-0.179-1.841-0.283
					c-0.711-0.122-1.392-0.252-2.042-0.389c-0.644-0.137-1.261-0.28-1.848-0.432c-0.541-0.134-1.061-0.276-1.553-0.419
					c-0.662-0.191-1.279-0.389-1.854-0.586c-0.729-0.249-1.392-0.501-1.984-0.745c-0.684-0.28-1.282-0.553-1.79-0.802
					c-1.586-0.775-2.343-1.346-2.343-1.346s-0.012,0.003-0.039,0.009c-0.608,0.118-7.959,1.501-14.878,0.052
					c0,0-0.544,0.912-1.14,2.538c-0.036,0.094-0.07,0.188-0.103,0.286c-0.116,0.319-0.228,0.665-0.34,1.036
					c-0.112,0.413-0.237,0.857-0.349,1.328c-0.03,0.088-0.049,0.182-0.076,0.289c-0.049,0.185-0.085,0.395-0.125,0.608
					c-0.009,0.058-0.027,0.134-0.027,0.191c0,0.049-0.027,0.07-0.027,0.106c-0.188,1.003-0.328,2.1-0.383,3.285
					C620.967,433.662,620.983,434.98,621.141,436.366z"/>
				<path style="fill:#FFFFFF;" d="M643.33,423.079c-0.166-0.151-0.384-0.263-0.615-0.252c-0.245,0.012-0.423,0.105-0.613,0.257
					c-0.133,0.106-0.267,0.212-0.401,0.317c-0.639,0.496-1.288,0.978-1.948,1.444c-0.188,0.133-0.335,0.292-0.397,0.52
					c-0.057,0.208-0.03,0.484,0.09,0.668c0.239,0.368,0.792,0.587,1.188,0.307c0.921-0.649,1.819-1.33,2.699-2.034
					c0.162-0.129,0.252-0.417,0.252-0.615C643.586,423.479,643.49,423.225,643.33,423.079z"/>
				<path style="fill:#FFFFFF;" d="M646.774,424.611c-0.326-0.297-0.913-0.364-1.227,0.005c-0.632,0.742-1.339,1.416-2.104,2.019
					c-0.123,0.093-0.246,0.186-0.371,0.276c-0.188,0.134-0.335,0.291-0.397,0.52c-0.056,0.208-0.029,0.484,0.09,0.668
					c0.238,0.366,0.793,0.589,1.188,0.307c1.041-0.742,1.997-1.595,2.826-2.568c0.151-0.177,0.253-0.374,0.252-0.615
					C647.03,425.011,646.934,424.757,646.774,424.611z"/>
				<path style="fill:#FFFFFF;" d="M649.938,425.72c-0.166-0.151-0.384-0.263-0.615-0.252c-0.213,0.01-0.476,0.079-0.613,0.257
					l-1.958,2.539c-0.147,0.191-0.253,0.363-0.252,0.615c0.001,0.213,0.096,0.467,0.257,0.613c0.166,0.151,0.383,0.263,0.615,0.252
					c0.213-0.01,0.476-0.079,0.613-0.257l1.958-2.539c0.147-0.191,0.253-0.363,0.252-0.615
					C650.194,426.12,650.099,425.866,649.938,425.72z"/>
				<path style="fill:#FFFFFF;" d="M653.446,426.524c-0.419-0.219-0.948-0.103-1.19,0.322c-0.427,0.738-0.849,1.469-1.276,2.207
					c-0.265,0.393-0.143,1.005,0.288,1.23c0.419,0.219,0.948,0.103,1.19-0.322c0.427-0.738,0.849-1.469,1.276-2.207
					C653.999,427.361,653.877,426.749,653.446,426.524z"/>
				<path style="fill:#36303A;" d="M621.185,436.69c0.058,0.458,0.116,0.925,0.211,1.401c0.086,0.42,0.162,0.859,0.267,1.307
					l48.548-0.198c0,0,0.082-0.496,0.079-1.29c-0.021-0.411-0.051-0.888-0.146-1.42L621.185,436.69z"/>
			</g>
			<path style="fill:#FFBE9E;" d="M638.83,241.979c10.104,63.509-0.322,180.726-0.322,180.726s-6.754,1.875-14.919,0.061
				c0,0-8.434-119.288-17.224-180.786L638.83,241.979z"/>
			<g>
				<path style="fill:#E1695B;" d="M600.278,436.366l-0.052,0.319c0,0.003,0,0.003,0,0.006c-0.024,0.234-0.052,0.462-0.085,0.693
					c-0.03,0.231-0.067,0.468-0.112,0.714c-0.021,0.094-0.043,0.188-0.064,0.286c-0.003,0.009-0.003,0.018-0.006,0.027
					c-0.046,0.21-0.088,0.426-0.131,0.647c0,0.015-0.006,0.03-0.009,0.046l-0.055,0.292h-0.009l-48.549-0.198
					c-0.003-0.015-0.012-0.082-0.024-0.191c-0.021-0.216-0.052-0.599-0.049-1.097c0.021-0.389,0.049-0.845,0.131-1.367
					c0.003-0.018,0.006-0.033,0.009-0.052c0-0.003,0-0.003,0-0.006c0.021-0.097,0.03-0.213,0.07-0.316
					c0.541-2.732,2.547-6.497,9.183-7.682c0.319-0.076,0.656-0.115,1.021-0.161h0.03c0.52-0.073,1.039-0.122,1.598-0.167
					c0.182-0.009,0.365-0.027,0.547-0.036c1.392-0.103,2.702-0.243,3.932-0.416c0.635-0.085,1.249-0.179,1.842-0.283
					c0.711-0.122,1.392-0.252,2.042-0.389c0.644-0.137,1.261-0.28,1.848-0.432c0.541-0.134,1.06-0.276,1.553-0.419
					c0.662-0.191,1.279-0.389,1.854-0.586c0.729-0.249,1.392-0.501,1.984-0.745c0.684-0.28,1.282-0.553,1.79-0.802
					c1.586-0.775,2.343-1.346,2.343-1.346s0.012,0.003,0.039,0.009c0.608,0.118,7.959,1.501,14.878,0.052
					c0,0,0.544,0.912,1.14,2.538c0.036,0.094,0.07,0.188,0.103,0.286c0.115,0.319,0.228,0.665,0.34,1.036
					c0.112,0.413,0.237,0.857,0.349,1.328c0.03,0.088,0.048,0.182,0.076,0.289c0.049,0.185,0.085,0.395,0.125,0.608
					c0.009,0.058,0.027,0.134,0.027,0.191c0,0.049,0.027,0.07,0.027,0.106c0.188,1.003,0.328,2.1,0.383,3.285
					C600.451,433.662,600.436,434.98,600.278,436.366z"/>
				<path style="fill:#FFFFFF;" d="M578.089,423.079c0.166-0.151,0.384-0.263,0.615-0.252c0.245,0.012,0.423,0.105,0.612,0.257
					c0.133,0.106,0.267,0.212,0.401,0.317c0.639,0.496,1.287,0.978,1.948,1.444c0.188,0.133,0.335,0.292,0.397,0.52
					c0.057,0.208,0.03,0.484-0.09,0.668c-0.239,0.368-0.792,0.587-1.188,0.307c-0.921-0.649-1.819-1.33-2.699-2.034
					c-0.162-0.129-0.252-0.417-0.252-0.615C577.833,423.479,577.928,423.225,578.089,423.079z"/>
				<path style="fill:#FFFFFF;" d="M574.645,424.611c0.326-0.297,0.913-0.364,1.227,0.005c0.632,0.742,1.339,1.416,2.104,2.019
					c0.123,0.093,0.246,0.186,0.371,0.276c0.188,0.134,0.334,0.291,0.397,0.52c0.056,0.208,0.029,0.484-0.09,0.668
					c-0.238,0.366-0.793,0.589-1.189,0.307c-1.041-0.742-1.997-1.595-2.826-2.568c-0.151-0.177-0.253-0.374-0.252-0.615
					C574.389,425.011,574.485,424.757,574.645,424.611z"/>
				<path style="fill:#FFFFFF;" d="M571.48,425.72c0.166-0.151,0.384-0.263,0.615-0.252c0.213,0.01,0.476,0.079,0.613,0.257
					l1.958,2.539c0.147,0.191,0.253,0.363,0.252,0.615c-0.001,0.213-0.096,0.467-0.257,0.613c-0.166,0.151-0.383,0.263-0.614,0.252
					c-0.213-0.01-0.476-0.079-0.613-0.257l-1.958-2.539c-0.147-0.191-0.253-0.363-0.252-0.615
					C571.225,426.12,571.32,425.866,571.48,425.72z"/>
				<path style="fill:#FFFFFF;" d="M567.972,426.524c0.419-0.219,0.948-0.103,1.19,0.322c0.426,0.738,0.849,1.469,1.276,2.207
					c0.264,0.393,0.143,1.005-0.288,1.23c-0.419,0.219-0.948,0.103-1.19-0.322c-0.427-0.738-0.849-1.469-1.276-2.207
					C567.42,427.361,567.542,426.749,567.972,426.524z"/>
				<path style="fill:#36303A;" d="M600.234,436.69c-0.058,0.458-0.116,0.925-0.211,1.401c-0.086,0.42-0.162,0.859-0.267,1.307
					l-48.548-0.198c0,0-0.082-0.496-0.079-1.29c0.021-0.411,0.05-0.888,0.146-1.42L600.234,436.69z"/>
			</g>
			<path style="fill:#FFBE9E;" d="M582.589,241.979c-9.294,62.778,0.321,180.726,0.321,180.726s6.754,1.875,14.919,0.061
				c0,0,8.697-109.787,18.583-180.786L582.589,241.979z"/>
			<path style="fill:#6F5E68;" d="M646.498,401.592c-8.85,1.91-18.09,1.77-24.75,1.22c-0.12,0-0.24-0.01-0.36-0.03
				c-5.53-0.46-9.18-1.19-9.18-1.19l-0.54-108.99l-5.3,108.99c-11.38,1.59-20.76,0.78-26.63-0.18c-0.12-0.02-0.24-0.04-0.35-0.06
				c-0.67-0.11-1.3-0.23-1.87-0.34c-0.12-0.02-0.24-0.04-0.35-0.07c-2.65-0.53-4.1-1-4.1-1s5.4-136.71,9.48-157.65l7.17,0.02h0.35
				l1.9,0.01h0.36l46.68,0.12C646.738,280.732,646.498,401.592,646.498,401.592z"/>
			<g>
				<path style="fill:#F3DEC1;" d="M612.951,245.255c-0.218,6.021-0.437,12.041-0.655,18.062c-0.217,5.99-0.434,11.98-0.652,17.97
					c-0.123,3.379-0.245,6.758-0.368,10.137c-0.008,0.229,0.347,0.228,0.355,0c0.218-6.021,0.437-12.041,0.655-18.062
					c0.217-5.99,0.434-11.98,0.652-17.97c0.122-3.379,0.245-6.758,0.368-10.137C613.315,245.026,612.959,245.027,612.951,245.255
					L612.951,245.255z"/>
				<path style="fill:#F3DEC1;" d="M617.391,244.59c0.099,4.114-0.012,8.233-0.338,12.335c-0.163,2.059-0.38,4.113-0.651,6.16
					c-0.265,2.01-0.546,4.034-0.963,6.019c-0.386,1.838-1.227,3.954-3.23,4.497c-0.22,0.06-0.127,0.402,0.094,0.342
					c1.673-0.454,2.689-2.006,3.18-3.577c0.298-0.955,0.453-1.95,0.62-2.934c0.176-1.04,0.338-2.082,0.487-3.125
					c0.594-4.177,0.968-8.385,1.117-12.602c0.084-2.371,0.096-4.744,0.039-7.116C617.74,244.362,617.385,244.361,617.391,244.59
					L617.391,244.59z"/>
				<path style="fill:#F3DEC1;" d="M621.748,402.812c-0.12,0-0.24-0.01-0.36-0.03c-0.51-9.47-1.03-18.93-1.54-28.4
					c-0.92-17-1.84-33.99-2.77-50.99c-0.92-17.09-1.85-34.17-2.78-51.26c-0.01-0.23,0.35-0.23,0.36,0
					c0.52,9.59,1.04,19.18,1.56,28.77c0.92,17,1.84,33.99,2.77,50.99C619.898,368.872,620.828,385.832,621.748,402.812z"/>
				<path style="fill:#F3DEC1;" d="M592.568,239.282c-0.08,1.01-0.16,2.03-0.24,3.04c-0.89,11.22-1.78,22.43-2.67,33.65
					c-1.72,21.8-3.44,43.6-5.17,65.4c-1.58,20.01-3.17,40.02-4.75,60.04c-0.12-0.02-0.24-0.04-0.35-0.06
					c0.83-10.44,1.65-20.86,2.48-31.29c1.72-21.8,3.44-43.6,5.17-65.39c1.64-20.79,3.29-41.57,4.93-62.35
					c0.08-1.01,0.16-2.03,0.24-3.04C592.228,239.052,592.588,239.052,592.568,239.282z"/>
				<path style="fill:#F3DEC1;" d="M590.308,239.282l-0.24,3.03c-0.88,11.22-1.77,22.44-2.66,33.66c-1.72,21.8-3.45,43.6-5.17,65.4
					c-1.58,19.87-3.15,39.76-4.72,59.64c-0.12-0.02-0.24-0.04-0.35-0.07c0.81-10.3,1.62-20.59,2.44-30.88
					c1.73-21.8,3.45-43.6,5.18-65.39c1.64-20.79,3.28-41.58,4.93-62.36c0.08-1.01,0.16-2.02,0.24-3.03
					C589.978,239.052,590.328,239.052,590.308,239.282z"/>
			</g>
		</g>
		<g>
			<g>
				<path style="fill:#DB9B7F;" d="M593.128,109.281c1.041,5.876,8.885,9.403,17.52,7.874c8.632-1.529,14.788-7.535,13.747-13.412
					c-0.339-1.917-1.485-4.054-3.176-6.011c-3.493-4.05-9.311-7.333-15.127-6.303c-5.905,1.046-10.28,6.257-12.125,11.329
					C593.111,105.105,592.798,107.42,593.128,109.281z"/>
				<path style="fill:#E1695B;" d="M593.128,109.281c1.041,5.876,8.885,9.403,17.52,7.874c8.632-1.529,14.788-7.535,13.747-13.412
					c-0.339-1.917-1.485-4.054-3.176-6.011c-4.182,0.065-8.653,0.486-13.257,1.301c-5.034,0.892-9.757,2.171-13.995,3.725
					C593.111,105.105,592.798,107.42,593.128,109.281z"/>
				
					<ellipse transform="matrix(0.9847 -0.1744 0.1744 0.9847 -10.7906 108.208)" style="fill:#DB9B7F;" cx="610.355" cy="115.507" rx="37.637" ry="16.122"/>
			</g>
			<path style="fill:#421F09;" d="M582.985,152.468c0.99-3.566,2.632-6.927,3.593-10.501c2.478-9.214,0.426-19.693,5.254-27.923
				c2.797-4.767,7.639-8.104,12.866-9.902c5.227-1.798,10.437-2.551,14.979-1.976c4.574,0.688,8.151,4.551,9.874,8.844
				c1.723,4.293,1.94,9.015,2.234,13.632c0.294,4.616,0.721,9.359,2.803,13.49c2.292,4.548,6.568,8.389,6.811,13.476
				c0.134,2.807-1.059,5.565-2.843,7.736c-1.784,2.171-4.126,3.817-6.552,5.237c-10.798,6.32-23.926,8.55-36.205,6.15
				c-4.895-0.957-10.104-2.997-12.39-7.43C581.712,160.013,581.994,156.034,582.985,152.468z"/>
			<path style="fill:#FFBE9E;" d="M621.837,155.232c7.061,2.084,24.265,21.908,24.265,21.908l5.359-35.95l9.622,1.849
				c0,0-2.01,35.133-2.464,42.633c-0.733,12.114-9.686,17.686-19.308,8.246c-6.161-6.044-15.35-16.991-15.35-16.991L621.837,155.232
				z"/>
			<path style="fill:#6B8383;" d="M621.837,155.232c5.995,0.988,24.073,20.172,24.073,20.172l0.466-5.471
				c9.044,0.082,14.708,4.707,14.708,4.707s1.614,19.705-7.935,24.22c-12.096,5.72-30.645-23.577-30.645-23.577L621.837,155.232z"/>
			<path style="fill:#DB9B7F;" d="M645.809,175.816c-0.284,1.86-0.346,3.745-0.175,5.619c0.021,0.226,0.376,0.228,0.355,0
				c-0.169-1.841-0.117-3.697,0.162-5.524C646.185,175.687,645.843,175.59,645.809,175.816L645.809,175.816z"/>
			<g>
				<g>
					<g>
						<g>
							<g>
								<g>
									<g>
										<g>
											<g>
												<g>
													<g>
														<g>
															<g>
																<g>
																	<g>
																		<g>
																			<g>
																				<g>
																					<g>
																						<g>
																							<g>
																								<g>
																									<path style="fill:#6B8383;" d="M582.544,242.289c45.666,9.436,56.467,0.148,56.467,0.148
																										c-0.301-2.02-12.076-46.879-12.076-46.879c6.884-2.838,7.861-13.94,2.024-22.107
																										c-1.02-1.423-2.24-2.761-3.68-3.961l-3.443-14.258l-9.649-2.779l-12.366,0.69l-10.21,4.018l2.867,55.606
																										C584.623,225.373,582.544,242.289,582.544,242.289z"/>
																								</g>
																							</g>
																						</g>
																					</g>
																				</g>
																			</g>
																		</g>
																	</g>
																</g>
															</g>
														</g>
													</g>
												</g>
											</g>
										</g>
									</g>
								</g>
							</g>
						</g>
					</g>
				</g>
			</g>
			<path style="fill:#DB9B7F;" d="M607.698,195.114c-2.875,0.612-5.922-0.263-8.022-2.322c-0.549-0.538-1.023-1.144-1.417-1.805
				c-0.117-0.196-0.424-0.018-0.306,0.179c1.523,2.557,4.227,4.243,7.196,4.471c0.885,0.068,1.775,0.003,2.643-0.182
				C608.015,195.409,607.921,195.067,607.698,195.114L607.698,195.114z"/>
			<path style="fill:#DB9B7F;" d="M597.365,213.511c1.944,1.631,4.192,2.881,6.607,3.664c0.689,0.223,1.391,0.407,2.1,0.552
				c0.223,0.046,0.318-0.296,0.094-0.342c-3.138-0.644-6.096-2.065-8.55-4.125C597.442,213.114,597.19,213.364,597.365,213.511
				L597.365,213.511z"/>
			<path style="fill:#DB9B7F;" d="M598.759,216.089c2.233,1.711,4.758,3.022,7.441,3.87c0.218,0.069,0.312-0.273,0.094-0.342
				c-2.654-0.839-5.146-2.141-7.356-3.834C598.757,215.643,598.58,215.952,598.759,216.089L598.759,216.089z"/>
			<path style="fill:#DB9B7F;" d="M627.192,195.477c2.13-0.703,3.659-2.492,4.537-4.499c0.964-2.201,1.355-4.672,1.315-7.065
				c-0.075-4.477-1.745-8.886-4.729-12.233c-1.534-1.72-3.408-3.14-5.512-4.088c-0.207-0.093-0.387,0.213-0.179,0.306
				c3.659,1.649,6.555,4.706,8.27,8.309c1.989,4.181,2.401,9.201,0.908,13.605c-0.781,2.305-2.298,4.528-4.704,5.322
				C626.882,195.205,626.974,195.548,627.192,195.477L627.192,195.477z"/>
			<path style="fill:#DB9B7F;" d="M625.24,168.9c-0.634-3.132-1.268-6.265-1.903-9.397c-0.18-0.889-0.36-1.777-0.54-2.666
				c-0.045-0.224-0.388-0.129-0.342,0.094c0.634,3.132,1.268,6.265,1.902,9.397c0.18,0.889,0.36,1.777,0.54,2.666
				C624.943,169.218,625.285,169.123,625.24,168.9L625.24,168.9z"/>
			<path style="fill:#7B95BA;" d="M597.427,153.059c0.448-3.277,3.571-5.207,6.583-5.752c3.473-0.628,7.054-0.074,10.378,1.009
				c6.677,2.176,12.459,6.478,19.231,8.395c0.818,0.232,1.647,0.422,2.484,0.573c0.381,0.069,0.596,0.532,0.5,0.88
				c-0.11,0.401-0.499,0.569-0.88,0.5c-6.568-1.184-12.177-4.992-18.199-7.622c-3.056-1.335-6.325-2.407-9.679-2.552
				c-2.856-0.124-6.468,0.3-8.232,2.864c-0.88,1.28-0.974,2.703-0.516,4.167c0.433,1.385,1.165,2.699,1.952,3.912
				c1.456,2.242,3.361,4.212,5.536,5.766c4.406,3.149,9.911,4.684,15.302,3.888c5.466-0.807,10.568-3.685,14.022-8.007
				c0.41-0.514,0.787-1.053,1.144-1.605c0.498-0.771,1.737-0.054,1.236,0.722c-3.204,4.96-8.374,8.528-14.106,9.9
				c-5.718,1.368-11.736,0.375-16.769-2.645c-2.474-1.484-4.684-3.419-6.454-5.697c-0.891-1.146-1.68-2.366-2.328-3.666
				C597.856,156.536,597.185,154.826,597.427,153.059z"/>
			<g>
				<g>
					<path style="fill:#FFBE9E;" d="M627.688,130.529c-0.009,0.086-0.026,0.171-0.036,0.256c-0.017,0.101-0.027,0.186-0.044,0.287
						c-0.778,4.795-2.675,7.758-5.211,9.907c-1.359,1.159-2.611,2-3.714,2.751c-0.354,0.243-0.686,0.47-1.009,0.698
						c-0.252,0.175-0.489,0.357-0.733,0.547c-2.469,1.878-3.915,4.008-3.919,10.327c-2.15,5.394-10.381,6.142-13.035,0.002
						c0.089-7.648-1.358-14.249-2.636-18.505c-0.323-1.111-0.641-2.058-0.915-2.818c-0.519-1.457-0.894-2.257-0.894-2.257
						s0.361-16.81,2.782-21.273c5.895-10.766,26.576-7.084,28.182,1.496C628.051,120.147,628.319,126.097,627.688,130.529z"/>
					<path style="fill:#421F09;" d="M629.21,121.177c-4.605-2.281-8.446-6.075-10.783-10.652c-0.884,2.826-2.794,5.304-5.284,6.905
						c-2.49,1.602-5.549,2.298-8.487,1.931c-0.218,2.205-1.266,4.344-2.868,5.874c-1.602,1.531-3.761,2.464-5.973,2.582
						c-1.442-3.061-1.778-6.68-1.071-9.989c0.708-3.309,2.297-6.384,4.294-9.115c0.98-1.341,2.087-2.631,3.508-3.492
						c2.136-1.295,4.739-1.488,7.231-1.648c2.332-0.15,4.677-0.3,7-0.044c2.322,0.256,4.643,0.942,6.529,2.323
						c2.229,1.632,3.703,4.132,4.575,6.753C628.753,115.228,628.892,118.432,629.21,121.177z"/>
					<g>
						<path style="fill:#C16B5B;" d="M618.25,128.695c0.305-0.136,0.626-0.21,0.961-0.212c0.298-0.002,0.624,0.055,0.862,0.247
							c0.255,0.207,0.372,0.512,0.381,0.835c0.008,0.308-0.108,0.606-0.237,0.88c-0.069,0.147-0.22,0.266-0.393,0.202
							c-0.142-0.053-0.276-0.234-0.202-0.393c0.094-0.2,0.198-0.418,0.207-0.643c0.005-0.115-0.019-0.234-0.082-0.331
							c0.003,0.006,0.007,0.012,0.01,0.018c-0.058-0.103-0.178-0.145-0.286-0.17c-0.008-0.002-0.017-0.004-0.029-0.006
							c-0.023-0.002-0.047-0.006-0.07-0.008c-0.062-0.006-0.125-0.008-0.187-0.008c-0.032,0-0.063,0.002-0.095,0.003
							c-0.017,0.001-0.018,0-0.023,0c-0.005,0.001-0.006,0.001-0.02,0.003c-0.196,0.025-0.366,0.095-0.552,0.15
							c-0.141,0.042-0.308-0.008-0.374-0.146C618.052,128.974,618.091,128.766,618.25,128.695z"/>
						<path style="fill:#421F09;" d="M625.582,121.593c-1.449-1.171-3.389-1.618-5.191-1.073c-0.441,0.133-0.763,0.625-0.613,1.085
							c0.194,0.597,0.724,0.695,1.263,0.563c1.107-0.272,2.255-0.054,3.191,0.596c0.031,0.021,0.061,0.043,0.11,0.079
							c0.358,0.284,0.895,0.369,1.238-0.003C625.875,122.52,625.965,121.902,625.582,121.593z"/>
						<path style="fill:#421F09;" d="M614.87,120.504c-1.759-0.615-3.735-0.382-5.249,0.738c-0.37,0.274-0.508,0.846-0.212,1.229
							c0.287,0.371,0.832,0.506,1.229,0.212c0.45-0.333,0.962-0.563,1.505-0.698c-0.023,0.009-0.047,0.019-0.07,0.028
							c0.677-0.151,1.349-0.099,2.015,0.076c0.454,0.119,0.99,0.089,1.201-0.41C615.457,121.278,615.334,120.667,614.87,120.504z"/>
						<g>
							<g>
								<path d="M611.187,126.523c-0.069,0.785,0.512,1.476,1.296,1.545c0.784,0.069,1.476-0.512,1.545-1.296
									c0.069-0.785-0.512-1.476-1.296-1.545C611.947,125.159,611.255,125.739,611.187,126.523z"/>
								<path style="fill:#FFFFFF;" d="M612.73,126.201c-0.02,0.229,0.149,0.43,0.378,0.45c0.229,0.02,0.43-0.149,0.45-0.378
									c0.02-0.229-0.149-0.43-0.378-0.45C612.952,125.803,612.75,125.972,612.73,126.201z"/>
							</g>
							<g>
								<path d="M621.589,126.797c-0.069,0.785,0.512,1.476,1.296,1.545c0.784,0.069,1.476-0.512,1.545-1.296
									c0.069-0.784-0.512-1.476-1.296-1.545C622.349,125.432,621.658,126.013,621.589,126.797z"/>
								<path style="fill:#FFFFFF;" d="M623.133,126.474c-0.02,0.229,0.149,0.43,0.378,0.45c0.229,0.02,0.43-0.149,0.45-0.378
									c0.02-0.229-0.149-0.43-0.378-0.45C623.354,126.077,623.153,126.246,623.133,126.474z"/>
							</g>
						</g>
						<g>
							<path style="fill:#8E4136;" d="M614.751,132.457c0.442-0.513,1.323,0.21,2.458,0.459c1.135,0.249,2.238-0.039,2.425,0.612
								c0.237,0.823-1.144,2.438-3.004,2.03C614.77,135.15,614.192,133.105,614.751,132.457z"/>
							<path style="fill:#C16B5B;" d="M614.643,133.709c0.365,0.033,0.751,0.087,1.151,0.175c1.321,0.29,2.393,0.809,2.836,1.314
								c-0.528,0.336-1.216,0.532-2,0.36C615.513,135.313,614.866,134.478,614.643,133.709z"/>
							<path style="fill:#E1EFF0;" d="M617.069,133.554c-1.013-0.222-1.822-0.651-2.016-1.267c0.488-0.082,1.239,0.428,2.156,0.629
								c0.917,0.201,1.813,0.052,2.222,0.33C618.997,133.725,618.083,133.776,617.069,133.554z"/>
						</g>
					</g>
					<g>
						<path style="fill:#FFBE9E;" d="M591.016,132.109c1.773,2.115,4.572,2.689,6.251,1.282c1.679-1.407,1.603-4.263-0.17-6.378
							c-1.773-2.116-4.571-2.69-6.251-1.282C589.167,127.138,589.243,129.993,591.016,132.109z"/>
						<path style="fill:#C16B5B;" d="M592.004,126.766c0.754-0.398,1.76-0.38,2.688,0.053c0.463,0.215,0.799,0.477,1.028,0.8
							c0.303,0.428,0.387,0.965,0.219,1.402c-0.15,0.392-0.462,0.646-0.738,0.871c-0.2,0.162-0.389,0.316-0.496,0.499
							c-0.164,0.282-0.123,0.676,0.096,0.918c0.219,0.241,0.607,0.319,0.904,0.182c0.175-0.081,0.38-0.004,0.46,0.169
							c0.08,0.173,0.005,0.38-0.169,0.46c-0.19,0.088-0.397,0.13-0.604,0.13c-0.412,0-0.824-0.167-1.104-0.476
							c-0.421-0.464-0.497-1.192-0.181-1.733c0.17-0.292,0.429-0.502,0.657-0.687c0.229-0.186,0.445-0.362,0.529-0.582
							c0.085-0.22,0.031-0.515-0.138-0.753c-0.068-0.096-0.161-0.182-0.263-0.266c-0.344-0.003-0.775,0.103-0.993,0.34
							c-0.245,0.269-0.361,0.657-0.302,1.015c0.031,0.189-0.097,0.367-0.286,0.398c-0.019,0.003-0.038,0.005-0.057,0.005
							c-0.167,0-0.313-0.12-0.341-0.29c-0.094-0.571,0.083-1.167,0.474-1.595c0.146-0.159,0.328-0.267,0.519-0.354
							c-0.573-0.155-1.139-0.124-1.578,0.107c-0.542,0.286-0.952,1.026-0.673,1.628c0.08,0.174,0.004,0.38-0.169,0.46
							c-0.174,0.08-0.379,0.005-0.46-0.169C590.62,128.42,591.068,127.261,592.004,126.766z"/>
					</g>
				</g>
			</g>
			<g>
				
					<rect x="652.847" y="126.517" transform="matrix(-1 -1.224647e-16 1.224647e-16 -1 1310.4528 254.7371)" style="fill:#E1695B;" width="4.759" height="1.703"/>
				
					<rect x="654.026" y="126.517" transform="matrix(-1 -1.224647e-16 1.224647e-16 -1 1312.8104 254.7371)" style="fill:#DB9B7F;" width="4.759" height="1.703"/>
				
					<rect x="645.91" y="127.868" transform="matrix(-1 -1.224647e-16 1.224647e-16 -1 1314.4735 272.4184)" style="fill:#5675A1;" width="22.653" height="16.683"/>
				
					<rect x="651.107" y="127.868" transform="matrix(-1 -1.224647e-16 1.224647e-16 -1 1324.8673 272.4184)" style="fill:#7B95BA;" width="22.653" height="16.683"/>
				<g>
					<ellipse style="fill:#E1695B;" cx="663.251" cy="135.623" rx="5.254" ry="9.603"/>
					
						<rect x="663.251" y="126.02" transform="matrix(-1 -1.224647e-16 1.224647e-16 -1 1331.7571 271.2455)" style="fill:#E1695B;" width="5.254" height="19.206"/>
					<ellipse style="fill:#DB9B7F;" cx="668.506" cy="135.623" rx="5.254" ry="9.603"/>
					<ellipse style="fill:#F3DEC1;" cx="668.506" cy="135.623" rx="3.998" ry="7.816"/>
				</g>
				
					<rect x="651.675" y="124.613" transform="matrix(-1 -1.224647e-16 1.224647e-16 -1 1309.9873 251.6007)" style="fill:#E1695B;" width="6.638" height="2.375"/>
				
					<rect x="653.319" y="124.613" transform="matrix(-1 -1.224647e-16 1.224647e-16 -1 1313.276 251.6007)" style="fill:#DB9B7F;" width="6.638" height="2.375"/>
			</g>
			<g>
				<g>
					<path style="fill:#FFBE9E;" d="M641.616,132.416c0,0,3.304-4.495,6.892-3.461c4.528,1.305,6.818,9.703,6.287,11.9
						c-0.532,2.197-4.861,3.715-6.646,5.835l-9.427-5.885C639.656,138.792,637.458,132.267,641.616,132.416z"/>
				</g>
				<path style="fill:#FFBE9E;" d="M589.612,157.16c-7.242,3.201-5.143,15.784,0.503,19.803
					c5.646,4.019,26.614,12.104,33.431,14.027c7.787,2.197,13.146-0.368,15.888-9.397c1.491-4.912,9.01-35.226,9.01-35.226
					l-9.56-6.102l-12.107,32.256L589.612,157.16z"/>
			</g>
			<path style="fill:#6B8383;" d="M589.612,157.16c3.233-0.666,36.21,13.859,36.21,13.859l2.183-7.399
				c4.486-0.183,15.722,5.846,15.722,5.846s-3.235,19.377-10.172,21.839c-10.961,3.891-39.868-10.821-44.354-15.097
				C584.714,171.933,581.721,160.932,589.612,157.16z"/>
			<g>
				<path style="fill:#DB9B7F;" d="M642.979,171.547c-0.415,4.329-1.596,8.583-3.479,12.504c-0.877,1.827-1.86,3.722-3.257,5.212
					c-0.69,0.735-1.497,1.35-2.427,1.749c-0.97,0.417-2.026,0.605-3.075,0.673c-2.171,0.141-4.396-0.101-6.54-0.429
					c-2.195-0.335-4.363-0.835-6.493-1.463c-4.328-1.275-8.482-3.077-12.488-5.141c-4.054-2.089-7.964-4.443-11.853-6.823
					c-0.484-0.296-0.969-0.594-1.453-0.89c-0.195-0.12-0.374,0.187-0.179,0.307c3.983,2.443,7.971,4.888,12.099,7.082
					c4.045,2.149,8.233,4.056,12.603,5.448c2.161,0.688,4.365,1.25,6.598,1.647c2.183,0.387,4.416,0.652,6.635,0.651
					c2.058-0.001,4.152-0.354,5.818-1.642c1.604-1.241,2.673-3.045,3.613-4.808c2.068-3.878,3.447-8.124,4.046-12.478
					c0.073-0.532,0.135-1.064,0.187-1.599C643.356,171.32,643.001,171.321,642.979,171.547L642.979,171.547z"/>
				<path style="fill:#DB9B7F;" d="M627.903,164.212c-0.976,3.125-1.952,6.251-2.928,9.376c-0.068,0.219,0.274,0.312,0.342,0.094
					c0.976-3.125,1.952-6.251,2.928-9.376C628.313,164.087,627.971,163.994,627.903,164.212L627.903,164.212z"/>
				<path style="fill:#DB9B7F;" d="M625.887,171.394c-3.795-1.896-7.593-3.788-11.447-5.562c-3.773-1.737-7.605-3.363-11.515-4.767
					c-2.192-0.788-4.418-1.486-6.687-2.015c-0.222-0.052-0.317,0.29-0.094,0.342c4.018,0.937,7.889,2.4,11.704,3.953
					c3.902,1.589,7.724,3.37,11.511,5.214c2.124,1.033,4.237,2.087,6.349,3.143C625.912,171.802,626.092,171.496,625.887,171.394
					L625.887,171.394z"/>
			</g>
		</g>
	</g>
	<g>
		<g>
			<g>
				<g>
					<path style="fill:#36303A;" d="M147.127,435.874l0.045,0.32c0.044,0.475,0.097,0.93,0.179,1.424
						c0.093,0.407,0.166,0.853,0.249,1.309l48.817,0.479c0,0,0.082-0.502,0.09-1.296c-0.015-0.407-0.04-0.881-0.121-1.433
						c-0.019-0.097-0.027-0.213-0.065-0.32c-0.505-2.753-2.471-6.566-9.126-7.851c-0.318-0.081-0.657-0.123-1.024-0.174
						l-0.029-0.001c-0.522-0.082-1.044-0.136-1.605-0.19c-0.184-0.012-0.367-0.033-0.551-0.044
						c-13.343-1.176-19.211-5.714-19.211-5.714s-7.756,1.472-14.998-0.147c0,0-0.865,1.404-1.644,3.855
						c-0.12,0.415-0.25,0.859-0.371,1.332c-0.03,0.087-0.05,0.183-0.08,0.29c-0.05,0.184-0.091,0.396-0.132,0.608
						c-0.01,0.058-0.03,0.135-0.031,0.193c-0.001,0.048-0.03,0.067-0.03,0.106c-0.203,1.004-0.359,2.106-0.429,3.296
						C146.989,433.153,146.985,434.479,147.127,435.874z"/>
					<path style="fill:#FFFFFF;" d="M169.617,422.826c-0.165-0.155-0.382-0.27-0.615-0.262c-0.246,0.009-0.427,0.099-0.619,0.249
						c-0.284,0.22-0.571,0.436-0.854,0.657c-0.493,0.384-1.016,0.727-1.531,1.081c-0.191,0.131-0.341,0.289-0.406,0.517
						c-0.06,0.209-0.036,0.487,0.081,0.673c0.235,0.373,0.788,0.601,1.19,0.325c0.935-0.64,1.847-1.311,2.742-2.007
						c0.165-0.128,0.26-0.416,0.262-0.614C169.868,423.232,169.776,422.975,169.617,422.826z"/>
					<path style="fill:#FFFFFF;" d="M173.057,424.414c-0.324-0.303-0.913-0.379-1.234-0.012c-0.646,0.737-1.365,1.405-2.144,2
						c-0.125,0.092-0.25,0.184-0.377,0.272c-0.191,0.132-0.34,0.288-0.406,0.517c-0.059,0.208-0.036,0.487,0.081,0.673
						c0.234,0.371,0.789,0.603,1.19,0.325c1.057-0.732,2.029-1.575,2.877-2.542c0.155-0.176,0.26-0.373,0.262-0.614
						C173.309,424.82,173.216,424.563,173.057,424.414z"/>
					<path style="fill:#FFFFFF;" d="M176.223,425.573c-0.165-0.154-0.382-0.27-0.614-0.262c-0.215,0.008-0.48,0.073-0.62,0.249
						l-2.004,2.525c-0.15,0.19-0.259,0.362-0.262,0.614c-0.002,0.214,0.09,0.47,0.25,0.62c0.165,0.154,0.382,0.27,0.614,0.262
						c0.214-0.008,0.48-0.073,0.62-0.25l2.004-2.525c0.151-0.19,0.259-0.361,0.262-0.615
						C176.474,425.978,176.382,425.722,176.223,425.573z"/>
					<path style="fill:#FFFFFF;" d="M179.738,426.43c-0.592-0.321-1.417,0.034-1.334,1c-0.285,0.456-0.471,0.753-0.757,1.208
						c-0.736,0.217-0.729,1.227-0.15,1.54c0.592,0.32,1.415-0.032,1.334-0.997c0.285-0.456,0.472-0.755,0.757-1.211
						C180.323,427.751,180.317,426.743,179.738,426.43z"/>
					<path style="fill:#DB9B7F;" d="M147.165,436.2c0.052,0.461,0.104,0.931,0.193,1.411c0.08,0.424,0.151,0.866,0.25,1.318
						l48.805,0.479c0,0,0.09-0.497,0.097-1.296c-0.015-0.413-0.038-0.893-0.127-1.43L147.165,436.2z"/>
				</g>
				<g>
					<path style="fill:#36303A;" d="M83.712,400.577l-0.206,0.249c-0.322,0.352-0.622,0.698-0.933,1.091
						c-0.239,0.343-0.52,0.697-0.801,1.065l32.503,36.426c0,0,0.427-0.277,1.019-0.805c0.29-0.285,0.625-0.623,0.978-1.055
						c0.059-0.079,0.139-0.164,0.193-0.263c1.696-2.227,3.193-6.247-0.336-12.034c-0.155-0.29-0.351-0.568-0.56-0.875l-0.019-0.022
						c-0.29-0.441-0.602-0.864-0.94-1.315c-0.115-0.144-0.223-0.294-0.338-0.438c-8.111-10.66-8.704-18.054-8.704-18.054
						s-6.309-4.745-9.986-11.191c0,0-1.621,0.306-3.957,1.379c-0.388,0.19-0.804,0.393-1.235,0.622
						c-0.084,0.037-0.169,0.087-0.268,0.136c-0.17,0.086-0.354,0.199-0.539,0.312c-0.05,0.031-0.12,0.069-0.164,0.107
						c-0.036,0.032-0.07,0.023-0.099,0.049c-0.88,0.526-1.8,1.152-2.726,1.901C85.632,398.644,84.649,399.534,83.712,400.577z"/>
					<path style="fill:#FFFFFF;" d="M108.499,408.429c0.003-0.226-0.058-0.464-0.22-0.631c-0.172-0.176-0.361-0.249-0.601-0.29
						c-0.354-0.062-0.707-0.129-1.061-0.19c-0.616-0.106-1.222-0.262-1.83-0.405c-0.225-0.053-0.443-0.058-0.656,0.048
						c-0.194,0.096-0.384,0.301-0.443,0.513c-0.118,0.425,0.086,0.987,0.561,1.099c1.102,0.26,2.213,0.484,3.329,0.677
						c0.205,0.036,0.482-0.088,0.631-0.22C108.369,408.888,108.496,408.646,108.499,408.429z"/>
					<path style="fill:#FFFFFF;" d="M109.641,412.042c0.006-0.443-0.334-0.93-0.822-0.921c-0.98,0.018-1.958-0.064-2.922-0.239
						c-0.152-0.03-0.304-0.061-0.455-0.096c-0.226-0.052-0.442-0.058-0.656,0.048c-0.194,0.096-0.384,0.301-0.443,0.513
						c-0.117,0.423,0.086,0.989,0.561,1.099c1.252,0.289,2.531,0.441,3.816,0.417c0.235-0.004,0.45-0.059,0.631-0.22
						C109.51,412.501,109.637,412.26,109.641,412.042z"/>
					<path style="fill:#FFFFFF;" d="M110.914,415.163c0.003-0.226-0.058-0.464-0.22-0.63c-0.15-0.154-0.377-0.306-0.601-0.29
						l-3.216,0.217c-0.242,0.016-0.442,0.052-0.631,0.22c-0.16,0.143-0.287,0.384-0.29,0.602c-0.003,0.225,0.057,0.464,0.22,0.63
						c0.15,0.153,0.377,0.305,0.602,0.29l3.216-0.217c0.242-0.016,0.442-0.052,0.631-0.22
						C110.784,415.622,110.911,415.381,110.914,415.163z"/>
					<path style="fill:#FFFFFF;" d="M112.646,418.34c-0.162-0.654-0.979-1.026-1.637-0.314c-0.529,0.096-0.874,0.158-1.403,0.254
						c-0.656-0.398-1.398,0.286-1.24,0.925c0.161,0.653,0.977,1.025,1.635,0.316c0.53-0.096,0.876-0.159,1.405-0.255
						C112.063,419.662,112.804,418.978,112.646,418.34z"/>
					<path style="fill:#DB9B7F;" d="M83.497,400.825c-0.306,0.349-0.619,0.703-0.914,1.093c-0.259,0.344-0.539,0.695-0.807,1.072
						l32.495,36.418c0,0,0.428-0.268,1.024-0.8c0.296-0.289,0.635-0.629,0.972-1.056L83.497,400.825z"/>
				</g>
				<path style="fill:#F0AE8B;" d="M171.685,250.166c4.568,32.484,3.723,67.613,1.257,78.027
					c-2.466,10.414-67.373,76.355-67.373,76.355s-6.546-3.723-9.986-11.191l47.971-70.696l-11.236-72.495H171.685z"/>
				<path style="fill:#F0B799;" d="M101.717,251.398c-0.108,41.442,33.55,101.41,48.059,170.838c0,0,4.978,2.853,14.998,0.147
					c-8.067-84.909-19.943-170.985-19.943-170.985H101.717z"/>
				<path style="fill:#7B95BA;" d="M124.735,344.586c0,0-25.515-62.999-23.017-93.188l71.068-1.634
					c3.654,18.453,5.066,73.081,2.168,79.841c-2.898,6.76-16.357,20.645-16.357,20.645l9.873,60.302
					c-10.962,4.176-26.377,2.314-26.377,2.314l-7.856-35.028l-19.732,22.988c-9.683-4.535-17.631-19.242-17.631-19.242
					L124.735,344.586z"/>
				<g>
					<path style="fill:#36303A;" d="M142.129,255.312c0.937,5.996,1.912,11.987,2.907,17.974c1.03,6.194,2.081,12.383,3.14,18.572
						c1.065,6.224,2.138,12.446,3.204,18.669c1.058,6.174,2.111,12.348,3.143,18.526c1.005,6.015,1.992,12.033,2.942,18.056
						c0.117,0.743,0.234,1.485,0.35,2.228c0.035,0.225,0.377,0.13,0.342-0.094c-0.937-5.996-1.912-11.987-2.907-17.974
						c-1.03-6.194-2.081-12.383-3.14-18.572c-1.065-6.224-2.138-12.446-3.204-18.669c-1.058-6.174-2.111-12.348-3.143-18.526
						c-1.005-6.015-1.992-12.033-2.942-18.056c-0.117-0.743-0.234-1.486-0.35-2.228
						C142.436,254.993,142.094,255.088,142.129,255.312L142.129,255.312z"/>
					<path style="fill:#36303A;" d="M146.396,255.312c0.686,4.093,1.507,8.163,2.251,12.246c0.388,2.129,0.74,4.264,1.098,6.399
						c0.205,1.224,0.41,2.447,0.615,3.671c0.2,1.192,0.426,2.391,0.433,3.604c0.007,1.18-0.215,2.354-0.875,3.349
						c-0.56,0.845-1.423,1.527-2.451,1.654c-0.224,0.028-0.227,0.383,0,0.355c1.916-0.237,3.208-2.006,3.548-3.802
						c0.222-1.176,0.13-2.375-0.037-3.551c-0.177-1.241-0.404-2.477-0.611-3.714c-0.747-4.463-1.529-8.917-2.366-13.364
						c-0.435-2.311-0.872-4.622-1.261-6.941C146.701,254.993,146.359,255.088,146.396,255.312L146.396,255.312z"/>
					<path style="fill:#36303A;" d="M118.045,256.329c0.245,2.322-0.697,4.598-2.216,6.325c-1.636,1.859-3.9,3.003-6.263,3.647
						c-1.386,0.378-2.809,0.593-4.239,0.713c-0.226,0.019-0.228,0.374,0,0.355c2.587-0.217,5.197-0.739,7.513-1.957
						c2.164-1.138,3.987-2.926,4.946-5.197c0.517-1.225,0.754-2.56,0.614-3.886C118.376,256.104,118.021,256.102,118.045,256.329
						L118.045,256.329z"/>
					<path style="fill:#36303A;" d="M124.712,345.401c1.226,4.109,2.452,8.218,3.677,12.327c1.217,4.08,2.435,8.161,3.652,12.241
						c0.689,2.311,1.379,4.623,2.068,6.934c0.065,0.218,0.408,0.125,0.342-0.094c-1.226-4.109-2.452-8.218-3.677-12.327
						c-1.217-4.08-2.435-8.161-3.652-12.241c-0.689-2.311-1.379-4.623-2.069-6.934C124.989,345.089,124.647,345.181,124.712,345.401
						L124.712,345.401z"/>
					<path style="fill:#36303A;" d="M137.378,340.447c-2.475,0.42-5.075,0.035-7.33-1.066c-0.633-0.309-1.236-0.674-1.806-1.087
						c-0.185-0.134-0.362,0.173-0.179,0.307c2.086,1.515,4.647,2.345,7.224,2.368c0.733,0.007,1.463-0.056,2.185-0.179
						C137.697,340.751,137.602,340.409,137.378,340.447L137.378,340.447z"/>
					<path style="fill:#36303A;" d="M135.422,342.302c-2.212,0.214-4.445,0.099-6.622-0.347c-0.223-0.046-0.318,0.296-0.094,0.342
						c2.208,0.452,4.473,0.576,6.717,0.36C135.648,342.635,135.65,342.28,135.422,342.302L135.422,342.302z"/>
				</g>
			</g>
			<g>
				<path style="fill:#F0B799;" d="M210.304,165.013c1.459-1.118,1.666-11.592,3.891-11.745c2.034-0.14,3.011,4.251,1.974,6.321
					c2.43-1.609,9.971-10.655,11.628-8.844c1.226,1.34-5.207,7.5-5.207,7.5s8.24-6.329,9.514-4.321s-7.879,7.418-7.879,7.418
					s8.035-4.13,8.78-2.36c0.733,1.74-7.948,5.339-7.948,5.339s7.253-1.812,7.599-0.795c0.346,1.017-3.818,3.149-7.436,3.832
					c-4.071,4.907-9.751,5.334-9.751,5.334L210.304,165.013z"/>
				<path style="fill:#D15D4F;" d="M154.272,146.354c13.337,3.082,19.914,43.605,19.914,43.605l34.47-29.476
					c7.308,2.558,12.377,13.491,12.377,13.491s-30.16,29.018-36.25,34.377c-6.09,5.359-22.533,10.597-28.258,0
					C150.8,197.755,154.272,146.354,154.272,146.354z"/>
				<g>
					<g>
						<g>
							<path style="fill:#D15D4F;" d="M112.683,146.048l14.156-3.704l13.497-0.035l13.936,4.044l18.514,103.409
								c-10.542,5.63-63.171,5.302-71.068,1.634C100.332,250.754,112.683,146.048,112.683,146.048z"/>
						</g>
					</g>
				</g>
				<path style="fill:#F3DEC1;" d="M117.731,162.189l-0.41-17.354l6.63-1.735l0.663,18.925l25.15-0.598l-1.271-16.75l5.778,1.677
					l25.549,129.201c0,0-21.834,7.095-70.798,5.146L117.731,162.189z"/>
				<g>
					<path style="fill:#DB9B7F;" d="M172.565,142.056c4.179,17.228,2.59,35.803-4.453,52.071l-8.191,1.382
						C158.003,176.962,162.321,157.636,172.565,142.056z"/>
					<path style="fill:#6B8383;" d="M152.637,144.207c2.537,8.096,5.078,16.206,6.85,24.503c1.772,8.297,2.768,16.811,2.178,25.275
						l-7.035,3.505c-2.536-8.594-3.387-17.615-3.358-26.576C151.301,161.954,151.742,153.123,152.637,144.207z"/>
					<path style="fill:#DB9B7F;" d="M147.559,163.868c8.049,8.535,13.445,19.538,15.264,31.128l-6.519-0.564
						C150.165,185.557,146.982,174.644,147.559,163.868z"/>
					<path style="fill:#6B8383;" d="M182.388,154.671c-1.513,14.411-5.767,28.634-12.262,41.587l-9.176-1.406
						C164.556,179.938,172.008,165.971,182.388,154.671z"/>
					<path style="fill:#36303A;" d="M148.861,190.875h27.925v6.58h-1.475v10.952c0,3.358-2.723,6.081-6.081,6.081h-12.813
						c-3.358,0-6.081-2.722-6.081-6.081v-10.952h-1.475V190.875z"/>
				</g>
				<path style="fill:#F0B799;" d="M149.007,198.554c2.068-0.465,6.392-6.337,8.202-5.799c2.408,0.716-0.867,5.886-0.867,5.886
					c2.416,0.826,10.078-2.488,11.107-2.861c1.76-0.639,2.497,1.657,1.026,3.007c1.042,0.508,0.942,2.221-0.194,3.16
					c1.683,1.515-0.528,3.182-0.528,3.182c1.161,0.949-0.018,2.712-0.724,3.314c-0.449,0.383-4.385,4.054-10.258,4.185
					c-4.191,0.094-5.868-0.297-5.868-0.297L149.007,198.554z"/>
				<path style="fill:#DB9B7F;" d="M167.111,229.456l-39.088,3.499l1.096,22.31c25.304,3.634,41.467-4.596,41.467-4.596
					L167.111,229.456z"/>
				<path style="fill:#D15D4F;" d="M112.683,146.048c-14.622,4.782-27.338,47.133-30.088,54.636
					c-5.116,13.958,2.801,20.536,8.892,21.43c4.372,0.643,59.071-6.456,59.071-6.456c1.612-9.683-1.786-19.708-1.786-19.708
					l-43.968,4.696l8.39-18.358L112.683,146.048z"/>
				<path style="fill:#F3DEC1;" d="M115.013,199.423c-3.922,0.449-7.844,0.897-11.766,1.346c-1.12,0.128-2.241,0.256-3.362,0.384
					c-0.224,0.026-0.227,0.381,0,0.355c3.922-0.449,7.844-0.897,11.766-1.346c1.121-0.128,2.241-0.256,3.362-0.384
					C115.237,199.753,115.24,199.397,115.013,199.423L115.013,199.423z"/>
				<path style="fill:#F3DEC1;" d="M113.193,219.942c-2.963,0.422-5.938,0.757-8.921,1.006c-0.226,0.019-0.228,0.374,0,0.355
					c3.014-0.251,6.021-0.591,9.015-1.018C113.512,220.253,113.416,219.91,113.193,219.942L113.193,219.942z"/>
			</g>
			<g>
				<path style="fill:#F3DEC1;" d="M115.816,177.518c-1.773,2.846-3.428,5.765-4.966,8.745c-1.542,2.986-2.966,6.033-4.269,9.131
					c-0.734,1.745-1.428,3.507-2.082,5.285c-0.079,0.215,0.264,0.307,0.342,0.094c1.156-3.146,2.442-6.244,3.849-9.287
					c1.403-3.036,2.925-6.019,4.562-8.936c0.92-1.639,1.877-3.257,2.87-4.852C116.243,177.503,115.936,177.324,115.816,177.518
					L115.816,177.518z"/>
				<path style="fill:#F3DEC1;" d="M116.39,179.412c-0.913,0.554-1.825,1.109-2.738,1.663c-0.195,0.118-0.017,0.426,0.179,0.306
					c0.913-0.554,1.825-1.109,2.738-1.663C116.764,179.6,116.586,179.293,116.39,179.412L116.39,179.412z"/>
			</g>
			<g>
				<g>
					<path style="fill:#421F09;" d="M127.07,84.696c2.272-0.822,4.644-1.342,6.962-1.554c3.432-0.314,6.949-0.051,10.256,0.947
						c4.665,1.406,8.612,4.712,9.915,9.519c0.746,2.751,0.653,5.698-0.069,8.456c2.301,5.405,1.641,11.923-1.651,16.788
						c-8.849,3.941-18.337,6.613-27.92,8.024c-7.241-3.144-12.784-9.94-14.431-17.661c-0.402-1.882-0.58-3.862-0.065-5.717
						c0.514-1.854,1.821-3.569,3.648-4.177c0.123-0.041,0.545-2.666,0.627-2.896C116.378,90.675,121.413,86.745,127.07,84.696z"/>
					<path style="fill:#F0B799;" d="M120.512,121.925c0,0,5.564,9.959,6.533,23.622c3.227,6.022,11.538,4.579,13.255-1.104
						c-0.427-5.191,0.335-7.684,1.877-9.575c0.128-0.158,0.256-0.298,0.39-0.451c0.092-0.108,0.183-0.203,0.287-0.305
						c0.184-0.191,0.399-0.37,0.6-0.567c0.288-0.255,0.589-0.511,0.902-0.773l0.006,0c1.234-1.029,2.686-2.125,4.277-3.723
						c2.32-2.312,3.97-5.396,4.414-10.093c0.011-0.056,0.017-0.113,0.022-0.175c0.011-0.069,0.016-0.138,0.021-0.206
						c0.01-0.125,0.014-0.237,0.018-0.356c0.011-0.056,0.01-0.106,0.016-0.156c0.271-4.587-0.51-10.645-2.789-18.933
						c-2.367-8.592-23.741-10.58-28.826,0.905C119.425,104.775,120.512,121.925,120.512,121.925z"/>
					<path style="fill:#421F09;" d="M151.635,98.401c-4.685,2.648-10.034,4.113-15.415,4.22c0.578-0.361,1.156-0.722,1.734-1.083
						c-3.197,1.451-6.771,2.061-10.269,1.754c0.549,2.793,0.137,5.766-1.15,8.304c-1.287,2.539-3.441,4.628-6.018,5.837
						c-1.833-3.882-3.17-8.199-2.743-12.471c0.427-4.272,2.482-8.476,5.974-10.975c3.265-2.336,7.41-3.008,11.406-3.396
						c2.801-0.272,5.679-0.43,8.385,0.345C147.184,91.98,150.217,94.885,151.635,98.401z"/>
					<g>
						<g>
							<path style="fill:#C16B5B;" d="M142.992,117.164c0.297-0.172,0.617-0.283,0.958-0.322c0.304-0.035,0.643-0.013,0.907,0.158
								c0.283,0.183,0.436,0.482,0.48,0.81c0.042,0.314-0.044,0.63-0.145,0.924c-0.055,0.158-0.196,0.295-0.379,0.249
								c-0.151-0.038-0.308-0.209-0.249-0.379c0.074-0.215,0.156-0.448,0.141-0.679c-0.008-0.118-0.045-0.237-0.12-0.328
								c0.004,0.006,0.008,0.012,0.013,0.018c-0.07-0.098-0.197-0.129-0.31-0.142c-0.009-0.001-0.018-0.002-0.03-0.003
								c-0.024,0.001-0.048-0.001-0.073-0.001c-0.064,0.001-0.128,0.005-0.192,0.012c-0.033,0.004-0.065,0.009-0.097,0.013
								c-0.017,0.002-0.019,0.002-0.024,0.003c-0.005,0.001-0.006,0.002-0.02,0.005c-0.197,0.047-0.363,0.137-0.547,0.214
								c-0.139,0.058-0.316,0.025-0.398-0.109C142.82,117.47,142.837,117.254,142.992,117.164z"/>
							<path style="fill:#421F09;" d="M149.637,108.749c-1.729-0.819-3.772-0.798-5.439,0.181c-0.408,0.24-0.611,0.808-0.35,1.231
								c0.338,0.549,0.89,0.519,1.396,0.257c0.451-0.234,0.943-0.389,1.446-0.456c-0.003-0.028-0.044,0.023-0.016,0.02
								c0.646-0.07,1.294,0.027,1.898,0.262c0.036,0.014,0.071,0.029,0.129,0.052c0.426,0.197,0.982,0.153,1.234-0.302
								C150.152,109.603,150.093,108.965,149.637,108.749z"/>
							<path style="fill:#421F09;" d="M138.743,109.404c-1.817-0.599-3.842-0.325-5.375,0.853c-0.375,0.288-0.506,0.878-0.195,1.265
								c0.301,0.375,0.863,0.504,1.265,0.195c0.154-0.118,0.315-0.222,0.479-0.327c0.016-0.009,0.013-0.008,0.023-0.014
								c0.03-0.015,0.059-0.031,0.09-0.046c0.065-0.032,0.131-0.063,0.197-0.092c0.177-0.077,0.359-0.144,0.544-0.2
								c0.047-0.014,0.343-0.121,0.115-0.035c0.076-0.029,0.169-0.035,0.249-0.049c0.179-0.03,0.359-0.051,0.541-0.062
								c0.097-0.006,0.193-0.006,0.29-0.008c0.011,0,0.014-0.001,0.021-0.001c0.014,0.001,0.033,0.003,0.062,0.005
								c0.181,0.012,0.361,0.035,0.539,0.068c0.095,0.018,0.19,0.038,0.283,0.062c0.037,0.009,0.074,0.02,0.111,0.03
								c0.007,0.002,0.004,0.001,0.012,0.004c0.003,0.001,0.005,0.001,0.008,0.001c0.003,0.001,0.006,0.002,0.008,0.002
								c-0.004-0.001-0.002-0.001-0.006-0.002c0.447,0.143,0.993,0.03,1.187-0.452C139.36,110.187,139.223,109.562,138.743,109.404z
								"/>
							<path style="fill:#C16B5B;" d="M139.977,121.718c1.197,0.815,2.678,1.14,4.108,0.931c0.396-0.058,0.462,0.559,0.067,0.617
								c-1.597,0.233-3.232-0.158-4.564-1.065C139.257,121.977,139.648,121.495,139.977,121.718z"/>
							<g>
								<g>
									<path d="M135.543,115.721c0.016,0.808,0.684,1.451,1.492,1.435c0.808-0.016,1.451-0.684,1.435-1.492
										c-0.016-0.808-0.684-1.451-1.492-1.435C136.169,114.244,135.527,114.913,135.543,115.721z"/>
									<path style="fill:#FFFFFF;" d="M137.083,115.222c0.005,0.236,0.199,0.423,0.435,0.418c0.236-0.005,0.423-0.199,0.418-0.435
										c-0.005-0.235-0.199-0.423-0.435-0.418C137.266,114.792,137.079,114.987,137.083,115.222z"/>
								</g>
								<g>
									<path d="M146.192,114.86c0.016,0.808,0.684,1.451,1.493,1.435c0.808-0.016,1.451-0.684,1.435-1.492
										c-0.016-0.808-0.684-1.451-1.493-1.435C146.819,113.384,146.177,114.052,146.192,114.86z"/>
									<path style="fill:#FFFFFF;" d="M147.733,114.362c0.005,0.235,0.199,0.423,0.435,0.418c0.236-0.005,0.423-0.199,0.418-0.435
										c-0.005-0.236-0.199-0.423-0.435-0.418C147.915,113.931,147.728,114.126,147.733,114.362z"/>
								</g>
							</g>
						</g>
					</g>
					<g>
						<path style="fill:#F0B799;" d="M115.928,122.7c1.986,2.003,4.885,2.348,6.475,0.772c1.59-1.576,1.268-4.478-0.718-6.481
							c-1.986-2.003-4.885-2.348-6.475-0.772C113.621,117.796,113.942,120.697,115.928,122.7z"/>
						<path style="fill:#C16B5B;" d="M116.478,117.175c0.734-0.47,1.76-0.537,2.742-0.176c0.49,0.179,0.854,0.417,1.115,0.727
							c0.345,0.41,0.477,0.95,0.343,1.409c-0.119,0.412-0.416,0.698-0.678,0.95c-0.189,0.182-0.369,0.355-0.462,0.551
							c-0.143,0.301-0.067,0.699,0.177,0.926c0.243,0.227,0.645,0.273,0.936,0.108c0.171-0.097,0.386-0.036,0.483,0.133
							c0.096,0.17,0.037,0.386-0.133,0.483c-0.186,0.106-0.393,0.166-0.604,0.184c-0.419,0.035-0.853-0.1-1.165-0.391
							c-0.468-0.437-0.608-1.172-0.333-1.749c0.148-0.311,0.394-0.548,0.61-0.756c0.217-0.209,0.422-0.407,0.489-0.638
							c0.067-0.231-0.013-0.527-0.205-0.755c-0.077-0.092-0.179-0.172-0.29-0.248c-0.351,0.026-0.781,0.171-0.982,0.431
							c-0.227,0.294-0.312,0.7-0.221,1.06c0.048,0.19-0.067,0.382-0.257,0.43c-0.019,0.005-0.038,0.008-0.057,0.009
							c-0.17,0.014-0.329-0.096-0.372-0.267c-0.145-0.573-0.015-1.195,0.347-1.665c0.135-0.174,0.311-0.299,0.498-0.405
							c-0.597-0.109-1.171-0.029-1.598,0.244c-0.528,0.338-0.882,1.126-0.547,1.716c0.096,0.17,0.036,0.386-0.133,0.483
							c-0.17,0.096-0.385,0.037-0.483-0.133C115.21,118.978,115.567,117.759,116.478,117.175z"/>
					</g>
				</g>
			</g>
		</g>
		<g>
			<g>
				<rect x="188.981" y="290.689" style="fill:#6F5E68;" width="56.272" height="8.039"/>
				<polygon style="fill:#6F5E68;" points="194.827,298.728 180.942,439.408 183.865,439.408 201.222,298.728 				"/>
				<polygon style="fill:#6F5E68;" points="239.406,298.728 253.292,439.408 250.368,439.408 233.012,298.728 				"/>
			</g>
			<g>
				<g>
					<path style="fill:#DB9B7F;" d="M199.895,242.69c-4.238-0.362-8.323-2.302-11.282-5.357c-2.749-2.838-4.49-6.542-5.436-10.378
						c-0.946-3.836-1.134-7.82-1.09-11.771c0.036-3.271,0.285-6.72,2.107-9.437c2.157-3.217,6.245-4.786,10.114-4.604
						c3.868,0.181,7.525,1.896,10.702,4.11c3.862,2.691,7.177,6.163,9.686,10.146c2.429,3.854,4.126,8.343,3.806,12.887
						C217.874,237.21,208.341,243.412,199.895,242.69z"/>
					<path style="fill:#36303A;" d="M192.466,206.021c2.61,2.335,5.021,4.889,7.208,7.624c2.193,2.743,4.16,5.667,5.883,8.726
						c1.724,3.061,3.206,6.258,4.424,9.554c1.214,3.285,2.169,6.665,2.845,10.101c0.678,3.445,1.073,6.945,1.169,10.454
						c0.012,0.435,0.019,0.869,0.022,1.304c0.002,0.228,0.357,0.229,0.355,0c-0.024-3.518-0.346-7.031-0.951-10.496
						c-0.609-3.487-1.505-6.924-2.669-10.266c-1.157-3.322-2.576-6.554-4.241-9.654c-1.675-3.119-3.599-6.104-5.754-8.913
						c-2.14-2.79-4.504-5.408-7.076-7.806c-0.318-0.296-0.639-0.589-0.963-0.879C192.547,205.618,192.295,205.868,192.466,206.021
						L192.466,206.021z"/>
				</g>
				<g>
					<path style="fill:#DB9B7F;" d="M215.477,229.748c-0.41-5.281,1.693-10.43,4.204-15.093c3.012-5.592,6.893-11.031,12.508-14
						c5.616-2.968,13.294-2.775,17.621,1.876c2.964,3.185,3.867,7.753,4.188,12.092c0.409,5.537,0.049,11.231-1.991,16.395
						c-2.041,5.164-5.919,9.761-11.074,11.823c-5.916,2.366-10.433-0.282-16.098-1.529
						C219.44,240.124,215.897,235.16,215.477,229.748z"/>
					<path style="fill:#36303A;" d="M241.683,202.547c-2.536,2.243-4.432,5.095-5.883,8.135c-1.497,3.135-2.553,6.456-3.525,9.784
						c-1.147,3.929-2.18,7.892-3.099,11.881c-0.919,3.989-1.723,8.004-2.411,12.039c-0.685,4.016-1.255,8.051-1.71,12.099
						c-0.058,0.513-0.113,1.026-0.167,1.539c-0.024,0.227,0.331,0.225,0.355,0c0.427-4.055,0.968-8.098,1.627-12.122
						c0.655-4.004,1.424-7.99,2.306-11.951c0.882-3.961,1.877-7.896,2.983-11.8c0.965-3.406,1.973-6.821,3.39-10.07
						c1.346-3.086,3.083-6.043,5.479-8.434c0.293-0.292,0.595-0.574,0.905-0.849C242.106,202.646,241.854,202.396,241.683,202.547
						L241.683,202.547z"/>
				</g>
				<g>
					<path style="fill:#6B8383;" d="M198.093,220.362c-0.105-7.425,2.816-14.651,6.909-20.98c2.219-3.43,5.2-6.907,9.379-7.599
						c3.873-0.641,7.818,1.397,10.289,4.298s3.727,6.548,4.775,10.144c1.452,4.984,2.609,10.122,2.32,15.285
						s-2.159,10.403-6.036,14.036c-2.941,2.756-7.722,4.568-11.828,4.795c-6.58,0.364-10.63-4.128-13.23-9.319
						C199.01,227.706,198.145,224.03,198.093,220.362z"/>
					<path style="fill:#36303A;" d="M214.821,196.008c-0.899,3.76-1.664,7.552-2.292,11.367c-0.627,3.812-1.118,7.646-1.472,11.493
						c-0.355,3.85-0.572,7.712-0.651,11.578s-0.021,7.734,0.175,11.595c0.197,3.861,0.531,7.715,1.005,11.552
						c0.06,0.487,0.123,0.973,0.187,1.459c0.029,0.223,0.385,0.226,0.355,0c-0.505-3.814-0.875-7.645-1.107-11.486
						c-0.233-3.859-0.328-7.727-0.285-11.592c0.043-3.847,0.223-7.693,0.538-11.527c0.319-3.875,0.776-7.738,1.374-11.58
						c0.591-3.801,1.318-7.582,2.179-11.331c0.11-0.478,0.222-0.955,0.336-1.432C215.216,195.881,214.874,195.786,214.821,196.008
						L214.821,196.008z"/>
				</g>
				<polygon style="fill:#6F5E68;" points="231.122,290.689 203.23,290.689 197.692,249.945 236.659,249.945 				"/>
			</g>
		</g>
	</g>
</g>
</svg>
